<svg width="24" height="24" viewBox="0 0 24 24">
    <!--!Font Awesome Free 6.5.1 by @fontawesome - https://fontawesome.com License - https://fontawesome.com/license/free Copyright 2024 Fonticons, Inc.-->
<path d="M3.1,1.8h17.8v15.8L20.5,18l-3.8,3.8l-0.4,0.4H3.1V1.8z M5.6,19.6h9.6l3.1-3.1V4.4H5.6V19.6z M11.8,13.6c0,0,0,0.1-0.1,0.2
	c-0.5,0.6-1.1,0.8-1.9,0.8c-0.8,0-1.4-0.3-1.9-0.8c-0.5-0.5-0.7-1.2-0.7-2c0-0.8,0.2-1.4,0.7-2C8.4,9.3,9,9,9.8,9
	c0.8,0,1.5,0.3,1.9,0.8c0.1,0.1,0.1,0.1,0.1,0.1c0,0-0.1,0.2-0.3,0.5s-0.3,0.5-0.3,0.5c0,0,0,0-0.1,0c0,0-0.1-0.1-0.2-0.2
	c-0.1-0.1-0.3-0.2-0.4-0.3c-0.2-0.1-0.4-0.2-0.6-0.2c-0.4,0-0.7,0.1-0.9,0.4c-0.2,0.3-0.3,0.6-0.3,1c0,0.4,0.1,0.7,0.3,1
	c0.2,0.3,0.5,0.4,0.9,0.4c0.2,0,0.4,0,0.6-0.1c0.1-0.1,0.3-0.2,0.4-0.3c0.1-0.1,0.2-0.1,0.2-0.1c0,0,0.1,0,0.1,0
	c0,0,0.2,0.2,0.3,0.5C11.7,13.5,11.8,13.6,11.8,13.6z M14.4,14.5c-0.3,0-0.5,0-0.6,0s-0.1,0-0.1-0.1c-0.3-0.6-0.6-1.2-0.9-1.7
	c-0.5-0.9-0.7-1.5-0.7-1.6c0-0.2,0-0.5,0-0.9c0-0.4,0-0.7,0-0.9c0-0.1,0-0.1,0.1-0.1c0.2,0,0.4,0,0.7,0c0.3,0,0.5,0,0.7,0
	c0.1,0,0.1,0,0.1,0.1c0,0.2,0,0.5,0,0.9c0,0.4,0,0.7,0,0.9c0,0.2,0.3,0.7,0.8,1.7c0.1-0.3,0.3-0.6,0.5-0.9c0.2-0.5,0.4-0.8,0.4-0.9
	c0-0.2,0-0.5,0-0.8c0-0.4,0-0.7,0-0.8c0-0.1,0-0.1,0-0.1h0.1c0.1,0,0.4,0,0.6,0c0.3,0,0.5,0,0.6,0c0.1,0,0.1,0,0.1,0.1
	c0,0.2,0,0.5,0,0.9s0,0.7,0,0.9c0,0.2-0.3,0.7-0.8,1.7c-0.2,0.4-0.5,0.9-0.9,1.6c0,0.1,0,0.1-0.1,0.1c0,0,0,0-0.1,0
	C14.9,14.5,14.7,14.5,14.4,14.5z"/>
</svg>
