<svg viewBox="0 0 203.67 204.59" width="24" height="24" >
    <path class="cls-1" d="M174,29.73A101.42,101.42,0,0,0,14.39,152.05L0,204.59l53.76-14.1a101.35,101.35,0,0,0,48.46,12.34h0A101.42,101.42,0,0,0,174,29.73Zm-71.74,156h0A84.18,84.18,0,0,1,59.33,174l-3.08-1.82-31.9,8.36,8.51-31.09-2-3.19a84.29,84.29,0,1,1,71.4,39.49ZM148.5,122.6c-2.54-1.27-15-7.39-17.32-8.24s-4-1.27-5.7,1.27-6.54,8.24-8,9.93-3,1.9-5.49.63-10.7-3.94-20.38-12.57a76.51,76.51,0,0,1-14.1-17.55c-1.47-2.53-.15-3.9,1.12-5.17s2.53-3,3.8-4.43a17.38,17.38,0,0,0,2.53-4.23,4.69,4.69,0,0,0-.21-4.44C84.1,76.53,79,64.07,76.92,59s-4.15-4.27-5.7-4.35-3.17-.08-4.86-.08a9.29,9.29,0,0,0-6.76,3.17c-2.32,2.53-8.87,8.66-8.87,21.13s9.08,24.51,10.35,26.2S79,132.34,104.37,143.31a146,146,0,0,0,14.44,5.34,34.88,34.88,0,0,0,16,1c4.87-.73,15-6.13,17.11-12s2.11-11,1.47-12.05S151,123.87,148.5,122.6Z"/>
</svg>
