<?xml version="1.0" standalone="no"?>
<!DOCTYPE svg PUBLIC "-//W3C//DTD SVG 20010904//EN"
 "http://www.w3.org/TR/2001/REC-SVG-20010904/DTD/svg10.dtd">
<svg version="1.0" xmlns="http://www.w3.org/2000/svg"
 width="700.000000pt" height="700.000000pt" viewBox="0 0 700.000000 700.000000"
 preserveAspectRatio="xMidYMid meet">
<metadata>
Created by potrace 1.14, written by Peter Selinger 2001-2017
</metadata>
<g transform="translate(0.000000,700.000000) scale(0.100000,-0.100000)"
fill="#000000" stroke="none">
<path d="M5559 5329 c-94 -8 -161 -41 -224 -111 -77 -85 -79 -101 -80 -523
l-1 -370 23 -23 23 -23 383 3 382 3 59 30 c71 36 135 106 161 178 18 48 20 81
20 402 0 472 33 435 -385 438 -157 1 -319 -1 -361 -4z"/>
<path d="M764 5314 c-16 -8 -39 -29 -50 -47 -19 -31 -19 -63 -19 -1471 -1
-1488 0 -1515 40 -1631 61 -177 201 -336 368 -417 146 -72 193 -78 531 -79
264 0 280 1 299 19 19 20 19 43 19 1494 0 1064 -3 1490 -11 1535 -57 304 -280
535 -581 597 -106 22 -551 23 -596 0z"/>
<path d="M3514 5315 c-27 -11 -245 -221 -356 -344 -73 -80 -145 -222 -163
-321 -3 -14 -7 -36 -10 -50 -3 -14 -6 -65 -6 -115 0 -144 44 -286 126 -410 38
-57 2257 -2284 2278 -2286 39 -4 70 20 240 189 201 200 268 285 310 398 43
116 50 155 50 279 -1 107 -4 131 -32 216 -59 182 -25 145 -1220 1340 -597 597
-1096 1091 -1109 1098 -34 18 -74 20 -108 6z"/>
<path d="M2578 2719 c-88 -7 -148 -33 -206 -87 -94 -90 -101 -120 -102 -430
-2 -506 -2 -490 20 -512 20 -20 29 -21 663 -18 l642 3 54 28 c64 34 121 92
153 155 23 47 23 50 23 418 0 358 -1 373 -20 394 -47 52 -38 51 -613 53 -295
1 -572 -1 -614 -4z"/>
</g>
</svg>
