
<svg version="1.1" id="Ebene_1" xmlns="http://www.w3.org/2000/svg" xmlns:xlink="http://www.w3.org/1999/xlink" x="0px" y="0px"
	 viewBox="0 0 750 137" style="enable-background:new 0 0 750 137;" xml:space="preserve">
<path id="binary-project" d="M3.3,10c0-4.1,1.7-6.2,4.4-6.2c2.7,0,4.4,2.2,4.4,6.2c0,4-1.7,6.3-4.4,6.3C5.1,16.3,3.3,14.1,3.3,10z M10.5,10
	c0-3.4-1.1-4.7-2.7-4.7S5.1,6.6,5.1,10c0,3.4,1.1,4.8,2.7,4.8S10.5,13.4,10.5,10z M6.5,9.9c0-0.8,0.6-1.3,1.2-1.3S9,9.1,9,9.9
	c0,0.8-0.6,1.3-1.2,1.3S6.5,10.7,6.5,9.9z M15.2,14.5h3.4V6.2H16V4.9c1.5-0.2,2.4-0.5,3.2-0.9h1.4v10.6h3v1.6h-8.4V14.5z M26.1,10
	c0-4.1,1.7-6.2,4.4-6.2c2.7,0,4.4,2.2,4.4,6.2c0,4-1.7,6.3-4.4,6.3C27.9,16.3,26.1,14.1,26.1,10z M33.3,10c0-3.4-1.1-4.7-2.7-4.7
	s-2.7,1.3-2.7,4.7c0,3.4,1.1,4.8,2.7,4.8S33.3,13.4,33.3,10z M29.3,9.9c0-0.8,0.6-1.3,1.2-1.3s1.2,0.5,1.2,1.3
	c0,0.8-0.6,1.3-1.2,1.3S29.3,10.7,29.3,9.9z M38,14.5h3.4V6.2h-2.7V4.9c1.5-0.2,2.4-0.5,3.2-0.9h1.4v10.6h3v1.6H38V14.5z M48.9,10
	c0-4.1,1.7-6.2,4.4-6.2c2.7,0,4.4,2.2,4.4,6.2c0,4-1.7,6.3-4.4,6.3C50.7,16.3,48.9,14.1,48.9,10z M56.1,10c0-3.4-1.1-4.7-2.7-4.7
	s-2.7,1.3-2.7,4.7c0,3.4,1.1,4.8,2.7,4.8S56.1,13.4,56.1,10z M52.1,9.9c0-0.8,0.6-1.3,1.2-1.3s1.2,0.5,1.2,1.3
	c0,0.8-0.6,1.3-1.2,1.3S52.1,10.7,52.1,9.9z M60.8,14.5h3.4V6.2h-2.7V4.9C63,4.7,63.9,4.4,64.7,4h1.4v10.6h3v1.6h-8.4V14.5z
	 M71.7,10c0-4.1,1.7-6.2,4.4-6.2c2.7,0,4.4,2.2,4.4,6.2c0,4-1.7,6.3-4.4,6.3C73.5,16.3,71.7,14.1,71.7,10z M78.9,10
	c0-3.4-1.1-4.7-2.7-4.7s-2.7,1.3-2.7,4.7c0,3.4,1.1,4.8,2.7,4.8S78.9,13.4,78.9,10z M74.9,9.9c0-0.8,0.6-1.3,1.2-1.3
	s1.2,0.5,1.2,1.3c0,0.8-0.6,1.3-1.2,1.3S74.9,10.7,74.9,9.9z M83.6,14.5h3.4V6.2h-2.7V4.9c1.5-0.2,2.4-0.5,3.2-0.9H89v10.6h3v1.6
	h-8.4V14.5z M94.5,10c0-4.1,1.7-6.2,4.4-6.2c2.7,0,4.4,2.2,4.4,6.2c0,4-1.7,6.3-4.4,6.3C96.2,16.3,94.5,14.1,94.5,10z M101.7,10
	c0-3.4-1.1-4.7-2.7-4.7s-2.7,1.3-2.7,4.7c0,3.4,1.1,4.8,2.7,4.8S101.7,13.4,101.7,10z M97.7,9.9c0-0.8,0.6-1.3,1.2-1.3
	s1.2,0.5,1.2,1.3c0,0.8-0.6,1.3-1.2,1.3S97.7,10.7,97.7,9.9z M106.4,14.5h3.4V6.2h-2.7V4.9c1.5-0.2,2.4-0.5,3.2-0.9h1.4v10.6h3v1.6
	h-8.4V14.5z M117.3,10c0-4.1,1.7-6.2,4.4-6.2c2.7,0,4.4,2.2,4.4,6.2c0,4-1.7,6.3-4.4,6.3C119,16.3,117.3,14.1,117.3,10z M124.5,10
	c0-3.4-1.1-4.7-2.7-4.7s-2.7,1.3-2.7,4.7c0,3.4,1.1,4.8,2.7,4.8S124.5,13.4,124.5,10z M120.5,9.9c0-0.8,0.6-1.3,1.2-1.3
	s1.2,0.5,1.2,1.3c0,0.8-0.6,1.3-1.2,1.3S120.5,10.7,120.5,9.9z M129.2,14.5h3.4V6.2H130V4.9c1.5-0.2,2.4-0.5,3.2-0.9h1.4v10.6h3v1.6
	h-8.4V14.5z M140.6,14.5h3.4V6.2h-2.7V4.9c1.5-0.2,2.4-0.5,3.2-0.9h1.4v10.6h3v1.6h-8.4V14.5z M151.5,10c0-4.1,1.7-6.2,4.4-6.2
	c2.7,0,4.4,2.2,4.4,6.2c0,4-1.7,6.3-4.4,6.3C153.2,16.3,151.5,14.1,151.5,10z M158.7,10c0-3.4-1.1-4.7-2.7-4.7s-2.7,1.3-2.7,4.7
	c0,3.4,1.1,4.8,2.7,4.8S158.7,13.4,158.7,10z M154.7,9.9c0-0.8,0.6-1.3,1.2-1.3s1.2,0.5,1.2,1.3c0,0.8-0.6,1.3-1.2,1.3
	S154.7,10.7,154.7,9.9z M163.4,14.5h3.4V6.2h-2.7V4.9c1.5-0.2,2.4-0.5,3.2-0.9h1.4v10.6h3v1.6h-8.4V14.5z M174.3,10
	c0-4.1,1.7-6.2,4.4-6.2c2.7,0,4.4,2.2,4.4,6.2c0,4-1.7,6.3-4.4,6.3C176,16.3,174.3,14.1,174.3,10z M181.5,10c0-3.4-1.1-4.7-2.7-4.7
	s-2.7,1.3-2.7,4.7c0,3.4,1.1,4.8,2.7,4.8S181.5,13.4,181.5,10z M177.5,9.9c0-0.8,0.6-1.3,1.2-1.3s1.2,0.5,1.2,1.3
	c0,0.8-0.6,1.3-1.2,1.3S177.5,10.7,177.5,9.9z M186.2,14.5h3.4V6.2H187V4.9c1.5-0.2,2.4-0.5,3.2-0.9h1.4v10.6h3v1.6h-8.4V14.5z
	 M197.6,14.5h3.4V6.2h-2.7V4.9c1.5-0.2,2.4-0.5,3.2-0.9h1.4v10.6h3v1.6h-8.4V14.5z M209,14.5h3.4V6.2h-2.7V4.9
	c1.5-0.2,2.4-0.5,3.2-0.9h1.4v10.6h3v1.6H209V14.5z M219.9,10c0-4.1,1.7-6.2,4.4-6.2c2.7,0,4.4,2.2,4.4,6.2c0,4-1.7,6.3-4.4,6.3
	C221.6,16.3,219.9,14.1,219.9,10z M227.1,10c0-3.4-1.1-4.7-2.7-4.7s-2.7,1.3-2.7,4.7c0,3.4,1.1,4.8,2.7,4.8S227.1,13.4,227.1,10z
	 M223.1,9.9c0-0.8,0.6-1.3,1.2-1.3s1.2,0.5,1.2,1.3c0,0.8-0.6,1.3-1.2,1.3S223.1,10.7,223.1,9.9z M231.8,14.5h3.4V6.2h-2.7V4.9
	c1.5-0.2,2.4-0.5,3.2-0.9h1.4v10.6h3v1.6h-8.4V14.5z M242.7,10c0-4.1,1.7-6.2,4.4-6.2c2.7,0,4.4,2.2,4.4,6.2c0,4-1.7,6.3-4.4,6.3
	C244.4,16.3,242.7,14.1,242.7,10z M249.9,10c0-3.4-1.1-4.7-2.7-4.7s-2.7,1.3-2.7,4.7c0,3.4,1.1,4.8,2.7,4.8S249.9,13.4,249.9,10z
	 M245.9,9.9c0-0.8,0.6-1.3,1.2-1.3s1.2,0.5,1.2,1.3c0,0.8-0.6,1.3-1.2,1.3S245.9,10.7,245.9,9.9z M254.1,10c0-4.1,1.7-6.2,4.4-6.2
	c2.7,0,4.4,2.2,4.4,6.2c0,4-1.7,6.3-4.4,6.3C255.8,16.3,254.1,14.1,254.1,10z M261.3,10c0-3.4-1.1-4.7-2.7-4.7s-2.7,1.3-2.7,4.7
	c0,3.4,1.1,4.8,2.7,4.8S261.3,13.4,261.3,10z M257.3,9.9c0-0.8,0.6-1.3,1.2-1.3s1.2,0.5,1.2,1.3c0,0.8-0.6,1.3-1.2,1.3
	S257.3,10.7,257.3,9.9z M266,14.5h3.4V6.2h-2.7V4.9c1.5-0.2,2.4-0.5,3.2-0.9h1.4v10.6h3v1.6H266V14.5z M276.9,10
	c0-4.1,1.7-6.2,4.4-6.2c2.7,0,4.4,2.2,4.4,6.2c0,4-1.7,6.3-4.4,6.3C278.6,16.3,276.9,14.1,276.9,10z M284.1,10
	c0-3.4-1.1-4.7-2.7-4.7s-2.7,1.3-2.7,4.7c0,3.4,1.1,4.8,2.7,4.8S284.1,13.4,284.1,10z M280.1,9.9c0-0.8,0.6-1.3,1.2-1.3
	s1.2,0.5,1.2,1.3c0,0.8-0.6,1.3-1.2,1.3S280.1,10.7,280.1,9.9z M288.8,14.5h3.4V6.2h-2.7V4.9c1.5-0.2,2.4-0.5,3.2-0.9h1.4v10.6h3
	v1.6h-8.4V14.5z M299.7,10c0-4.1,1.7-6.2,4.4-6.2c2.7,0,4.4,2.2,4.4,6.2c0,4-1.7,6.3-4.4,6.3C301.4,16.3,299.7,14.1,299.7,10z
	 M306.9,10c0-3.4-1.1-4.7-2.7-4.7s-2.7,1.3-2.7,4.7c0,3.4,1.1,4.8,2.7,4.8S306.9,13.4,306.9,10z M302.9,9.9c0-0.8,0.6-1.3,1.2-1.3
	s1.2,0.5,1.2,1.3c0,0.8-0.6,1.3-1.2,1.3S302.9,10.7,302.9,9.9z M311.6,14.5h3.4V6.2h-2.7V4.9c1.5-0.2,2.4-0.5,3.2-0.9h1.4v10.6h3
	v1.6h-8.4V14.5z M322.5,10c0-4.1,1.7-6.2,4.4-6.2c2.7,0,4.4,2.2,4.4,6.2c0,4-1.7,6.3-4.4,6.3C324.2,16.3,322.5,14.1,322.5,10z
	 M329.7,10c0-3.4-1.1-4.7-2.7-4.7s-2.7,1.3-2.7,4.7c0,3.4,1.1,4.8,2.7,4.8S329.7,13.4,329.7,10z M325.7,9.9c0-0.8,0.6-1.3,1.2-1.3
	s1.2,0.5,1.2,1.3c0,0.8-0.6,1.3-1.2,1.3S325.7,10.7,325.7,9.9z M334.4,14.5h3.4V6.2h-2.7V4.9c1.5-0.2,2.4-0.5,3.2-0.9h1.4v10.6h3
	v1.6h-8.4V14.5z M345.3,10c0-4.1,1.7-6.2,4.4-6.2c2.7,0,4.4,2.2,4.4,6.2c0,4-1.7,6.3-4.4,6.3C347,16.3,345.3,14.1,345.3,10z
	 M352.5,10c0-3.4-1.1-4.7-2.7-4.7s-2.7,1.3-2.7,4.7c0,3.4,1.1,4.8,2.7,4.8S352.5,13.4,352.5,10z M348.5,9.9c0-0.8,0.6-1.3,1.2-1.3
	s1.2,0.5,1.2,1.3c0,0.8-0.6,1.3-1.2,1.3S348.5,10.7,348.5,9.9z M357.2,14.5h3.4V6.2H358V4.9c1.5-0.2,2.4-0.5,3.2-0.9h1.4v10.6h3v1.6
	h-8.4V14.5z M368.1,10c0-4.1,1.7-6.2,4.4-6.2c2.7,0,4.4,2.2,4.4,6.2c0,4-1.7,6.3-4.4,6.3C369.8,16.3,368.1,14.1,368.1,10z M375.3,10
	c0-3.4-1.1-4.7-2.7-4.7s-2.7,1.3-2.7,4.7c0,3.4,1.1,4.8,2.7,4.8S375.3,13.4,375.3,10z M371.3,9.9c0-0.8,0.6-1.3,1.2-1.3
	s1.2,0.5,1.2,1.3c0,0.8-0.6,1.3-1.2,1.3S371.3,10.7,371.3,9.9z M379.5,10c0-4.1,1.7-6.2,4.4-6.2s4.4,2.2,4.4,6.2
	c0,4-1.7,6.3-4.4,6.3S379.5,14.1,379.5,10z M386.7,10c0-3.4-1.1-4.7-2.7-4.7s-2.7,1.3-2.7,4.7c0,3.4,1.1,4.8,2.7,4.8
	S386.7,13.4,386.7,10z M382.7,9.9c0-0.8,0.6-1.3,1.2-1.3s1.2,0.5,1.2,1.3c0,0.8-0.6,1.3-1.2,1.3S382.7,10.7,382.7,9.9z M390.9,10
	c0-4.1,1.7-6.2,4.4-6.2s4.4,2.2,4.4,6.2c0,4-1.7,6.3-4.4,6.3S390.9,14.1,390.9,10z M398.1,10c0-3.4-1.1-4.7-2.7-4.7
	s-2.7,1.3-2.7,4.7c0,3.4,1.1,4.8,2.7,4.8S398.1,13.4,398.1,10z M394.1,9.9c0-0.8,0.6-1.3,1.2-1.3s1.2,0.5,1.2,1.3
	c0,0.8-0.6,1.3-1.2,1.3S394.1,10.7,394.1,9.9z M402.8,14.5h3.4V6.2h-2.7V4.9c1.5-0.2,2.4-0.5,3.2-0.9h1.4v10.6h3v1.6h-8.4V14.5z
	 M414.2,14.5h3.4V6.2h-2.7V4.9c1.5-0.2,2.4-0.5,3.2-0.9h1.4v10.6h3v1.6h-8.4V14.5z M425.1,10c0-4.1,1.7-6.2,4.4-6.2S434,5.9,434,10
	c0,4-1.7,6.3-4.4,6.3S425.1,14.1,425.1,10z M432.3,10c0-3.4-1.1-4.7-2.7-4.7s-2.7,1.3-2.7,4.7c0,3.4,1.1,4.8,2.7,4.8
	S432.3,13.4,432.3,10z M428.3,9.9c0-0.8,0.6-1.3,1.2-1.3s1.2,0.5,1.2,1.3c0,0.8-0.6,1.3-1.2,1.3S428.3,10.7,428.3,9.9z M437,14.5
	h3.4V6.2h-2.7V4.9c1.5-0.2,2.4-0.5,3.2-0.9h1.4v10.6h3v1.6H437V14.5z M447.9,10c0-4.1,1.7-6.2,4.4-6.2s4.4,2.2,4.4,6.2
	c0,4-1.7,6.3-4.4,6.3S447.9,14.1,447.9,10z M455.1,10c0-3.4-1.1-4.7-2.7-4.7s-2.7,1.3-2.7,4.7c0,3.4,1.1,4.8,2.7,4.8
	S455.1,13.4,455.1,10z M451.1,9.9c0-0.8,0.6-1.3,1.2-1.3s1.2,0.5,1.2,1.3c0,0.8-0.6,1.3-1.2,1.3S451.1,10.7,451.1,9.9z M459.8,14.5
	h3.4V6.2h-2.7V4.9c1.5-0.2,2.4-0.5,3.2-0.9h1.4v10.6h3v1.6h-8.4V14.5z M470.7,10c0-4.1,1.7-6.2,4.4-6.2s4.4,2.2,4.4,6.2
	c0,4-1.7,6.3-4.4,6.3S470.7,14.1,470.7,10z M477.9,10c0-3.4-1.1-4.7-2.7-4.7s-2.7,1.3-2.7,4.7c0,3.4,1.1,4.8,2.7,4.8
	S477.9,13.4,477.9,10z M473.9,9.9c0-0.8,0.6-1.3,1.2-1.3s1.2,0.5,1.2,1.3c0,0.8-0.6,1.3-1.2,1.3S473.9,10.7,473.9,9.9z M482.6,14.5
	h3.4V6.2h-2.7V4.9c1.5-0.2,2.4-0.5,3.2-0.9h1.4v10.6h3v1.6h-8.4V14.5z M493.5,10c0-4.1,1.7-6.2,4.4-6.2s4.4,2.2,4.4,6.2
	c0,4-1.7,6.3-4.4,6.3S493.5,14.1,493.5,10z M500.7,10c0-3.4-1.1-4.7-2.7-4.7s-2.7,1.3-2.7,4.7c0,3.4,1.1,4.8,2.7,4.8
	S500.7,13.4,500.7,10z M496.7,9.9c0-0.8,0.6-1.3,1.2-1.3s1.2,0.5,1.2,1.3c0,0.8-0.6,1.3-1.2,1.3S496.7,10.7,496.7,9.9z M505.4,14.5
	h3.4V6.2h-2.7V4.9c1.5-0.2,2.4-0.5,3.2-0.9h1.4v10.6h3v1.6h-8.4V14.5z M516.3,10c0-4.1,1.7-6.2,4.4-6.2s4.4,2.2,4.4,6.2
	c0,4-1.7,6.3-4.4,6.3S516.3,14.1,516.3,10z M523.5,10c0-3.4-1.1-4.7-2.7-4.7s-2.7,1.3-2.7,4.7c0,3.4,1.1,4.8,2.7,4.8
	S523.5,13.4,523.5,10z M519.5,9.9c0-0.8,0.6-1.3,1.2-1.3s1.2,0.5,1.2,1.3c0,0.8-0.6,1.3-1.2,1.3S519.5,10.7,519.5,9.9z M527.7,10
	c0-4.1,1.7-6.2,4.4-6.2s4.4,2.2,4.4,6.2c0,4-1.7,6.3-4.4,6.3S527.7,14.1,527.7,10z M534.9,10c0-3.4-1.1-4.7-2.7-4.7
	s-2.7,1.3-2.7,4.7c0,3.4,1.1,4.8,2.7,4.8S534.9,13.4,534.9,10z M530.9,9.9c0-0.8,0.6-1.3,1.2-1.3s1.2,0.5,1.2,1.3
	c0,0.8-0.6,1.3-1.2,1.3S530.9,10.7,530.9,9.9z M539.6,14.5h3.4V6.2h-2.7V4.9c1.5-0.2,2.4-0.5,3.2-0.9h1.4v10.6h3v1.6h-8.4V14.5z
	 M550.5,10c0-4.1,1.7-6.2,4.4-6.2s4.4,2.2,4.4,6.2c0,4-1.7,6.3-4.4,6.3S550.5,14.1,550.5,10z M557.7,10c0-3.4-1.1-4.7-2.7-4.7
	s-2.7,1.3-2.7,4.7c0,3.4,1.1,4.8,2.7,4.8S557.7,13.4,557.7,10z M553.7,9.9c0-0.8,0.6-1.3,1.2-1.3s1.2,0.5,1.2,1.3
	c0,0.8-0.6,1.3-1.2,1.3S553.7,10.7,553.7,9.9z M562.4,14.5h3.4V6.2h-2.7V4.9c1.5-0.2,2.4-0.5,3.2-0.9h1.4v10.6h3v1.6h-8.4V14.5z
	 M573.3,10c0-4.1,1.7-6.2,4.4-6.2s4.4,2.2,4.4,6.2c0,4-1.7,6.3-4.4,6.3S573.3,14.1,573.3,10z M580.5,10c0-3.4-1.1-4.7-2.7-4.7
	s-2.7,1.3-2.7,4.7c0,3.4,1.1,4.8,2.7,4.8S580.5,13.4,580.5,10z M576.5,9.9c0-0.8,0.6-1.3,1.2-1.3s1.2,0.5,1.2,1.3
	c0,0.8-0.6,1.3-1.2,1.3S576.5,10.7,576.5,9.9z M584.7,10c0-4.1,1.7-6.2,4.4-6.2s4.4,2.2,4.4,6.2c0,4-1.7,6.3-4.4,6.3
	S584.7,14.1,584.7,10z M591.9,10c0-3.4-1.1-4.7-2.7-4.7s-2.7,1.3-2.7,4.7c0,3.4,1.1,4.8,2.7,4.8S591.9,13.4,591.9,10z M587.9,9.9
	c0-0.8,0.6-1.3,1.2-1.3s1.2,0.5,1.2,1.3c0,0.8-0.6,1.3-1.2,1.3S587.9,10.7,587.9,9.9z M596.1,10c0-4.1,1.7-6.2,4.4-6.2
	S605,5.9,605,10c0,4-1.7,6.3-4.4,6.3S596.1,14.1,596.1,10z M603.3,10c0-3.4-1.1-4.7-2.7-4.7s-2.7,1.3-2.7,4.7c0,3.4,1.1,4.8,2.7,4.8
	S603.3,13.4,603.3,10z M599.3,9.9c0-0.8,0.6-1.3,1.2-1.3s1.2,0.5,1.2,1.3c0,0.8-0.6,1.3-1.2,1.3S599.3,10.7,599.3,9.9z M608,14.5
	h3.4V6.2h-2.7V4.9c1.5-0.2,2.4-0.5,3.2-0.9h1.4v10.6h3v1.6H608V14.5z M619.4,14.5h3.4V6.2h-2.7V4.9c1.5-0.2,2.4-0.5,3.2-0.9h1.4
	v10.6h3v1.6h-8.4V14.5z M630.3,10c0-4.1,1.7-6.2,4.4-6.2s4.4,2.2,4.4,6.2c0,4-1.7,6.3-4.4,6.3S630.3,14.1,630.3,10z M637.5,10
	c0-3.4-1.1-4.7-2.7-4.7s-2.7,1.3-2.7,4.7c0,3.4,1.1,4.8,2.7,4.8S637.5,13.4,637.5,10z M633.5,9.9c0-0.8,0.6-1.3,1.2-1.3
	s1.2,0.5,1.2,1.3c0,0.8-0.6,1.3-1.2,1.3S633.5,10.7,633.5,9.9z M642.2,14.5h3.4V6.2h-2.7V4.9c1.5-0.2,2.4-0.5,3.2-0.9h1.4v10.6h3
	v1.6h-8.4V14.5z M653.1,10c0-4.1,1.7-6.2,4.4-6.2S662,5.9,662,10c0,4-1.7,6.3-4.4,6.3S653.1,14.1,653.1,10z M660.3,10
	c0-3.4-1.1-4.7-2.7-4.7s-2.7,1.3-2.7,4.7c0,3.4,1.1,4.8,2.7,4.8S660.3,13.4,660.3,10z M656.3,9.9c0-0.8,0.6-1.3,1.2-1.3
	s1.2,0.5,1.2,1.3c0,0.8-0.6,1.3-1.2,1.3S656.3,10.7,656.3,9.9z M665,14.5h3.4V6.2h-2.7V4.9c1.5-0.2,2.4-0.5,3.2-0.9h1.4v10.6h3v1.6
	H665V14.5z M676.4,14.5h3.4V6.2h-2.7V4.9c1.5-0.2,2.4-0.5,3.2-0.9h1.4v10.6h3v1.6h-8.4V14.5z M687.8,14.5h3.4V6.2h-2.7V4.9
	c1.5-0.2,2.4-0.5,3.2-0.9h1.4v10.6h3v1.6h-8.4V14.5z M698.7,10c0-4.1,1.7-6.2,4.4-6.2s4.4,2.2,4.4,6.2c0,4-1.7,6.3-4.4,6.3
	S698.7,14.1,698.7,10z M705.8,10c0-3.4-1.1-4.7-2.7-4.7s-2.7,1.3-2.7,4.7c0,3.4,1.1,4.8,2.7,4.8S705.8,13.4,705.8,10z M701.9,9.9
	c0-0.8,0.6-1.3,1.2-1.3s1.2,0.5,1.2,1.3c0,0.8-0.6,1.3-1.2,1.3S701.9,10.7,701.9,9.9z M710.6,14.5h3.4V6.2h-2.7V4.9
	c1.5-0.2,2.4-0.5,3.2-0.9h1.4v10.6h3v1.6h-8.4V14.5z M722,14.5h3.4V6.2h-2.7V4.9c1.5-0.2,2.4-0.5,3.2-0.9h1.4v10.6h3v1.6H722V14.5z
	 M732.9,10c0-4.1,1.7-6.2,4.4-6.2s4.4,2.2,4.4,6.2c0,4-1.7,6.3-4.4,6.3S732.9,14.1,732.9,10z M740,10c0-3.4-1.1-4.7-2.7-4.7
	s-2.7,1.3-2.7,4.7c0,3.4,1.1,4.8,2.7,4.8S740,13.4,740,10z M736.1,9.9c0-0.8,0.6-1.3,1.2-1.3s1.2,0.5,1.2,1.3c0,0.8-0.6,1.3-1.2,1.3
	S736.1,10.7,736.1,9.9z M3.8,33.5h3.4v-8.4H4.6v-1.2C6,23.7,6.9,23.4,7.7,23h1.4v10.6h3v1.6H3.8V33.5z M14.7,29
	c0-4.1,1.7-6.2,4.4-6.2c2.7,0,4.4,2.2,4.4,6.2c0,4-1.7,6.3-4.4,6.3C16.5,35.3,14.7,33.1,14.7,29z M21.9,29c0-3.4-1.1-4.7-2.7-4.7
	s-2.7,1.3-2.7,4.7c0,3.4,1.1,4.8,2.7,4.8S21.9,32.4,21.9,29z M17.9,28.9c0-0.8,0.6-1.3,1.2-1.3s1.2,0.5,1.2,1.3
	c0,0.8-0.6,1.3-1.2,1.3S17.9,29.7,17.9,28.9z M26.6,33.5h3.4v-8.4h-2.7v-1.2c1.5-0.2,2.4-0.5,3.2-0.9H32v10.6h3v1.6h-8.4V33.5z
	 M37.5,29c0-4.1,1.7-6.2,4.4-6.2c2.7,0,4.4,2.2,4.4,6.2c0,4-1.7,6.3-4.4,6.3C39.3,35.3,37.5,33.1,37.5,29z M44.7,29
	c0-3.4-1.1-4.7-2.7-4.7s-2.7,1.3-2.7,4.7c0,3.4,1.1,4.8,2.7,4.8S44.7,32.4,44.7,29z M40.7,28.9c0-0.8,0.6-1.3,1.2-1.3
	s1.2,0.5,1.2,1.3c0,0.8-0.6,1.3-1.2,1.3S40.7,29.7,40.7,28.9z M49.4,33.5h3.4v-8.4h-2.7v-1.2c1.5-0.2,2.4-0.5,3.2-0.9h1.4v10.6h3
	v1.6h-8.4V33.5z M60.8,33.5h3.4v-8.4h-2.7v-1.2c1.5-0.2,2.4-0.5,3.2-0.9h1.4v10.6h3v1.6h-8.4V33.5z M71.7,29c0-4.1,1.7-6.2,4.4-6.2
	c2.7,0,4.4,2.2,4.4,6.2c0,4-1.7,6.3-4.4,6.3C73.5,35.3,71.7,33.1,71.7,29z M78.9,29c0-3.4-1.1-4.7-2.7-4.7s-2.7,1.3-2.7,4.7
	c0,3.4,1.1,4.8,2.7,4.8S78.9,32.4,78.9,29z M74.9,28.9c0-0.8,0.6-1.3,1.2-1.3s1.2,0.5,1.2,1.3c0,0.8-0.6,1.3-1.2,1.3
	S74.9,29.7,74.9,28.9z M83.6,33.5h3.4v-8.4h-2.7v-1.2c1.5-0.2,2.4-0.5,3.2-0.9H89v10.6h3v1.6h-8.4V33.5z M94.5,29
	c0-4.1,1.7-6.2,4.4-6.2c2.7,0,4.4,2.2,4.4,6.2c0,4-1.7,6.3-4.4,6.3C96.2,35.3,94.5,33.1,94.5,29z M101.7,29c0-3.4-1.1-4.7-2.7-4.7
	s-2.7,1.3-2.7,4.7c0,3.4,1.1,4.8,2.7,4.8S101.7,32.4,101.7,29z M97.7,28.9c0-0.8,0.6-1.3,1.2-1.3s1.2,0.5,1.2,1.3
	c0,0.8-0.6,1.3-1.2,1.3S97.7,29.7,97.7,28.9z M106.4,33.5h3.4v-8.4h-2.7v-1.2c1.5-0.2,2.4-0.5,3.2-0.9h1.4v10.6h3v1.6h-8.4V33.5z
	 M117.3,29c0-4.1,1.7-6.2,4.4-6.2c2.7,0,4.4,2.2,4.4,6.2c0,4-1.7,6.3-4.4,6.3C119,35.3,117.3,33.1,117.3,29z M124.5,29
	c0-3.4-1.1-4.7-2.7-4.7s-2.7,1.3-2.7,4.7c0,3.4,1.1,4.8,2.7,4.8S124.5,32.4,124.5,29z M120.5,28.9c0-0.8,0.6-1.3,1.2-1.3
	s1.2,0.5,1.2,1.3c0,0.8-0.6,1.3-1.2,1.3S120.5,29.7,120.5,28.9z M129.2,33.5h3.4v-8.4H130v-1.2c1.5-0.2,2.4-0.5,3.2-0.9h1.4v10.6h3
	v1.6h-8.4V33.5z M140.1,29c0-4.1,1.7-6.2,4.4-6.2c2.7,0,4.4,2.2,4.4,6.2c0,4-1.7,6.3-4.4,6.3C141.8,35.3,140.1,33.1,140.1,29z
	 M147.3,29c0-3.4-1.1-4.7-2.7-4.7s-2.7,1.3-2.7,4.7c0,3.4,1.1,4.8,2.7,4.8S147.3,32.4,147.3,29z M143.3,28.9c0-0.8,0.6-1.3,1.2-1.3
	s1.2,0.5,1.2,1.3c0,0.8-0.6,1.3-1.2,1.3S143.3,29.7,143.3,28.9z M152,33.5h3.4v-8.4h-2.7v-1.2c1.5-0.2,2.4-0.5,3.2-0.9h1.4v10.6h3
	v1.6H152V33.5z M162.9,29c0-4.1,1.7-6.2,4.4-6.2c2.7,0,4.4,2.2,4.4,6.2c0,4-1.7,6.3-4.4,6.3C164.6,35.3,162.9,33.1,162.9,29z
	 M170.1,29c0-3.4-1.1-4.7-2.7-4.7s-2.7,1.3-2.7,4.7c0,3.4,1.1,4.8,2.7,4.8S170.1,32.4,170.1,29z M166.1,28.9c0-0.8,0.6-1.3,1.2-1.3
	s1.2,0.5,1.2,1.3c0,0.8-0.6,1.3-1.2,1.3S166.1,29.7,166.1,28.9z M174.3,29c0-4.1,1.7-6.2,4.4-6.2c2.7,0,4.4,2.2,4.4,6.2
	c0,4-1.7,6.3-4.4,6.3C176,35.3,174.3,33.1,174.3,29z M181.5,29c0-3.4-1.1-4.7-2.7-4.7s-2.7,1.3-2.7,4.7c0,3.4,1.1,4.8,2.7,4.8
	S181.5,32.4,181.5,29z M177.5,28.9c0-0.8,0.6-1.3,1.2-1.3s1.2,0.5,1.2,1.3c0,0.8-0.6,1.3-1.2,1.3S177.5,29.7,177.5,28.9z
	 M186.2,33.5h3.4v-8.4H187v-1.2c1.5-0.2,2.4-0.5,3.2-0.9h1.4v10.6h3v1.6h-8.4V33.5z M197.1,29c0-4.1,1.7-6.2,4.4-6.2
	c2.7,0,4.4,2.2,4.4,6.2c0,4-1.7,6.3-4.4,6.3C198.8,35.3,197.1,33.1,197.1,29z M204.3,29c0-3.4-1.1-4.7-2.7-4.7s-2.7,1.3-2.7,4.7
	c0,3.4,1.1,4.8,2.7,4.8S204.3,32.4,204.3,29z M200.3,28.9c0-0.8,0.6-1.3,1.2-1.3s1.2,0.5,1.2,1.3c0,0.8-0.6,1.3-1.2,1.3
	S200.3,29.7,200.3,28.9z M208.5,29c0-4.1,1.7-6.2,4.4-6.2c2.7,0,4.4,2.2,4.4,6.2c0,4-1.7,6.3-4.4,6.3
	C210.2,35.3,208.5,33.1,208.5,29z M215.7,29c0-3.4-1.1-4.7-2.7-4.7s-2.7,1.3-2.7,4.7c0,3.4,1.1,4.8,2.7,4.8S215.7,32.4,215.7,29z
	 M211.7,28.9c0-0.8,0.6-1.3,1.2-1.3s1.2,0.5,1.2,1.3c0,0.8-0.6,1.3-1.2,1.3S211.7,29.7,211.7,28.9z M220.4,33.5h3.4v-8.4h-2.7v-1.2
	c1.5-0.2,2.4-0.5,3.2-0.9h1.4v10.6h3v1.6h-8.4V33.5z M231.3,29c0-4.1,1.7-6.2,4.4-6.2c2.7,0,4.4,2.2,4.4,6.2c0,4-1.7,6.3-4.4,6.3
	C233,35.3,231.3,33.1,231.3,29z M238.5,29c0-3.4-1.1-4.7-2.7-4.7s-2.7,1.3-2.7,4.7c0,3.4,1.1,4.8,2.7,4.8S238.5,32.4,238.5,29z
	 M234.5,28.9c0-0.8,0.6-1.3,1.2-1.3s1.2,0.5,1.2,1.3c0,0.8-0.6,1.3-1.2,1.3S234.5,29.7,234.5,28.9z M243.2,33.5h3.4v-8.4H244v-1.2
	c1.5-0.2,2.4-0.5,3.2-0.9h1.4v10.6h3v1.6h-8.4V33.5z M254.1,29c0-4.1,1.7-6.2,4.4-6.2c2.7,0,4.4,2.2,4.4,6.2c0,4-1.7,6.3-4.4,6.3
	C255.8,35.3,254.1,33.1,254.1,29z M261.3,29c0-3.4-1.1-4.7-2.7-4.7s-2.7,1.3-2.7,4.7c0,3.4,1.1,4.8,2.7,4.8S261.3,32.4,261.3,29z
	 M257.3,28.9c0-0.8,0.6-1.3,1.2-1.3s1.2,0.5,1.2,1.3c0,0.8-0.6,1.3-1.2,1.3S257.3,29.7,257.3,28.9z M266,33.5h3.4v-8.4h-2.7v-1.2
	c1.5-0.2,2.4-0.5,3.2-0.9h1.4v10.6h3v1.6H266V33.5z M276.9,29c0-4.1,1.7-6.2,4.4-6.2c2.7,0,4.4,2.2,4.4,6.2c0,4-1.7,6.3-4.4,6.3
	C278.6,35.3,276.9,33.1,276.9,29z M284.1,29c0-3.4-1.1-4.7-2.7-4.7s-2.7,1.3-2.7,4.7c0,3.4,1.1,4.8,2.7,4.8S284.1,32.4,284.1,29z
	 M280.1,28.9c0-0.8,0.6-1.3,1.2-1.3s1.2,0.5,1.2,1.3c0,0.8-0.6,1.3-1.2,1.3S280.1,29.7,280.1,28.9z M288.3,29c0-4.1,1.7-6.2,4.4-6.2
	c2.7,0,4.4,2.2,4.4,6.2c0,4-1.7,6.3-4.4,6.3C290,35.3,288.3,33.1,288.3,29z M295.5,29c0-3.4-1.1-4.7-2.7-4.7s-2.7,1.3-2.7,4.7
	c0,3.4,1.1,4.8,2.7,4.8S295.5,32.4,295.5,29z M291.5,28.9c0-0.8,0.6-1.3,1.2-1.3s1.2,0.5,1.2,1.3c0,0.8-0.6,1.3-1.2,1.3
	S291.5,29.7,291.5,28.9z M300.2,33.5h3.4v-8.4H301v-1.2c1.5-0.2,2.4-0.5,3.2-0.9h1.4v10.6h3v1.6h-8.4V33.5z M311.1,29
	c0-4.1,1.7-6.2,4.4-6.2c2.7,0,4.4,2.2,4.4,6.2c0,4-1.7,6.3-4.4,6.3C312.8,35.3,311.1,33.1,311.1,29z M318.3,29
	c0-3.4-1.1-4.7-2.7-4.7s-2.7,1.3-2.7,4.7c0,3.4,1.1,4.8,2.7,4.8S318.3,32.4,318.3,29z M314.3,28.9c0-0.8,0.6-1.3,1.2-1.3
	s1.2,0.5,1.2,1.3c0,0.8-0.6,1.3-1.2,1.3S314.3,29.7,314.3,28.9z M323,33.5h3.4v-8.4h-2.7v-1.2c1.5-0.2,2.4-0.5,3.2-0.9h1.4v10.6h3
	v1.6H323V33.5z M333.9,29c0-4.1,1.7-6.2,4.4-6.2c2.7,0,4.4,2.2,4.4,6.2c0,4-1.7,6.3-4.4,6.3C335.6,35.3,333.9,33.1,333.9,29z
	 M341.1,29c0-3.4-1.1-4.7-2.7-4.7s-2.7,1.3-2.7,4.7c0,3.4,1.1,4.8,2.7,4.8S341.1,32.4,341.1,29z M337.1,28.9c0-0.8,0.6-1.3,1.2-1.3
	s1.2,0.5,1.2,1.3c0,0.8-0.6,1.3-1.2,1.3S337.1,29.7,337.1,28.9z M345.3,29c0-4.1,1.7-6.2,4.4-6.2c2.7,0,4.4,2.2,4.4,6.2
	c0,4-1.7,6.3-4.4,6.3C347,35.3,345.3,33.1,345.3,29z M352.5,29c0-3.4-1.1-4.7-2.7-4.7s-2.7,1.3-2.7,4.7c0,3.4,1.1,4.8,2.7,4.8
	S352.5,32.4,352.5,29z M348.5,28.9c0-0.8,0.6-1.3,1.2-1.3s1.2,0.5,1.2,1.3c0,0.8-0.6,1.3-1.2,1.3S348.5,29.7,348.5,28.9z M356.7,29
	c0-4.1,1.7-6.2,4.4-6.2c2.7,0,4.4,2.2,4.4,6.2c0,4-1.7,6.3-4.4,6.3C358.4,35.3,356.7,33.1,356.7,29z M363.9,29
	c0-3.4-1.1-4.7-2.7-4.7s-2.7,1.3-2.7,4.7c0,3.4,1.1,4.8,2.7,4.8S363.9,32.4,363.9,29z M359.9,28.9c0-0.8,0.6-1.3,1.2-1.3
	s1.2,0.5,1.2,1.3c0,0.8-0.6,1.3-1.2,1.3S359.9,29.7,359.9,28.9z M368.1,29c0-4.1,1.7-6.2,4.4-6.2c2.7,0,4.4,2.2,4.4,6.2
	c0,4-1.7,6.3-4.4,6.3C369.8,35.3,368.1,33.1,368.1,29z M375.3,29c0-3.4-1.1-4.7-2.7-4.7s-2.7,1.3-2.7,4.7c0,3.4,1.1,4.8,2.7,4.8
	S375.3,32.4,375.3,29z M371.3,28.9c0-0.8,0.6-1.3,1.2-1.3s1.2,0.5,1.2,1.3c0,0.8-0.6,1.3-1.2,1.3S371.3,29.7,371.3,28.9z M380,33.5
	h3.4v-8.4h-2.7v-1.2c1.5-0.2,2.4-0.5,3.2-0.9h1.4v10.6h3v1.6H380V33.5z M391.4,33.5h3.4v-8.4h-2.7v-1.2c1.5-0.2,2.4-0.5,3.2-0.9h1.4
	v10.6h3v1.6h-8.4V33.5z M402.3,29c0-4.1,1.7-6.2,4.4-6.2s4.4,2.2,4.4,6.2c0,4-1.7,6.3-4.4,6.3S402.3,33.1,402.3,29z M409.5,29
	c0-3.4-1.1-4.7-2.7-4.7s-2.7,1.3-2.7,4.7c0,3.4,1.1,4.8,2.7,4.8S409.5,32.4,409.5,29z M405.5,28.9c0-0.8,0.6-1.3,1.2-1.3
	s1.2,0.5,1.2,1.3c0,0.8-0.6,1.3-1.2,1.3S405.5,29.7,405.5,28.9z M414.2,33.5h3.4v-8.4h-2.7v-1.2c1.5-0.2,2.4-0.5,3.2-0.9h1.4v10.6h3
	v1.6h-8.4V33.5z M425.1,29c0-4.1,1.7-6.2,4.4-6.2s4.4,2.2,4.4,6.2c0,4-1.7,6.3-4.4,6.3S425.1,33.1,425.1,29z M432.3,29
	c0-3.4-1.1-4.7-2.7-4.7s-2.7,1.3-2.7,4.7c0,3.4,1.1,4.8,2.7,4.8S432.3,32.4,432.3,29z M428.3,28.9c0-0.8,0.6-1.3,1.2-1.3
	s1.2,0.5,1.2,1.3c0,0.8-0.6,1.3-1.2,1.3S428.3,29.7,428.3,28.9z M437,33.5h3.4v-8.4h-2.7v-1.2c1.5-0.2,2.4-0.5,3.2-0.9h1.4v10.6h3
	v1.6H437V33.5z M448.4,33.5h3.4v-8.4h-2.7v-1.2c1.5-0.2,2.4-0.5,3.2-0.9h1.4v10.6h3v1.6h-8.4V33.5z M459.8,33.5h3.4v-8.4h-2.7v-1.2
	c1.5-0.2,2.4-0.5,3.2-0.9h1.4v10.6h3v1.6h-8.4V33.5z M471.2,33.5h3.4v-8.4h-2.7v-1.2c1.5-0.2,2.4-0.5,3.2-0.9h1.4v10.6h3v1.6h-8.4
	V33.5z M482.6,33.5h3.4v-8.4h-2.7v-1.2c1.5-0.2,2.4-0.5,3.2-0.9h1.4v10.6h3v1.6h-8.4V33.5z M494,33.5h3.4v-8.4h-2.7v-1.2
	c1.5-0.2,2.4-0.5,3.2-0.9h1.4v10.6h3v1.6H494V33.5z M505.4,33.5h3.4v-8.4h-2.7v-1.2c1.5-0.2,2.4-0.5,3.2-0.9h1.4v10.6h3v1.6h-8.4
	V33.5z M516.3,29c0-4.1,1.7-6.2,4.4-6.2s4.4,2.2,4.4,6.2c0,4-1.7,6.3-4.4,6.3S516.3,33.1,516.3,29z M523.5,29c0-3.4-1.1-4.7-2.7-4.7
	s-2.7,1.3-2.7,4.7c0,3.4,1.1,4.8,2.7,4.8S523.5,32.4,523.5,29z M519.5,28.9c0-0.8,0.6-1.3,1.2-1.3s1.2,0.5,1.2,1.3
	c0,0.8-0.6,1.3-1.2,1.3S519.5,29.7,519.5,28.9z M528.2,33.5h3.4v-8.4h-2.7v-1.2c1.5-0.2,2.4-0.5,3.2-0.9h1.4v10.6h3v1.6h-8.4V33.5z
	 M539.1,29c0-4.1,1.7-6.2,4.4-6.2s4.4,2.2,4.4,6.2c0,4-1.7,6.3-4.4,6.3S539.1,33.1,539.1,29z M546.3,29c0-3.4-1.1-4.7-2.7-4.7
	s-2.7,1.3-2.7,4.7c0,3.4,1.1,4.8,2.7,4.8S546.3,32.4,546.3,29z M542.3,28.9c0-0.8,0.6-1.3,1.2-1.3s1.2,0.5,1.2,1.3
	c0,0.8-0.6,1.3-1.2,1.3S542.3,29.7,542.3,28.9z M551,33.5h3.4v-8.4h-2.7v-1.2c1.5-0.2,2.4-0.5,3.2-0.9h1.4v10.6h3v1.6H551V33.5z
	 M561.9,29c0-4.1,1.7-6.2,4.4-6.2s4.4,2.2,4.4,6.2c0,4-1.7,6.3-4.4,6.3S561.9,33.1,561.9,29z M569.1,29c0-3.4-1.1-4.7-2.7-4.7
	s-2.7,1.3-2.7,4.7c0,3.4,1.1,4.8,2.7,4.8S569.1,32.4,569.1,29z M565.1,28.9c0-0.8,0.6-1.3,1.2-1.3s1.2,0.5,1.2,1.3
	c0,0.8-0.6,1.3-1.2,1.3S565.1,29.7,565.1,28.9z M573.8,33.5h3.4v-8.4h-2.7v-1.2c1.5-0.2,2.4-0.5,3.2-0.9h1.4v10.6h3v1.6h-8.4V33.5z
	 M584.7,29c0-4.1,1.7-6.2,4.4-6.2s4.4,2.2,4.4,6.2c0,4-1.7,6.3-4.4,6.3S584.7,33.1,584.7,29z M591.9,29c0-3.4-1.1-4.7-2.7-4.7
	s-2.7,1.3-2.7,4.7c0,3.4,1.1,4.8,2.7,4.8S591.9,32.4,591.9,29z M587.9,28.9c0-0.8,0.6-1.3,1.2-1.3s1.2,0.5,1.2,1.3
	c0,0.8-0.6,1.3-1.2,1.3S587.9,29.7,587.9,28.9z M596.6,33.5h3.4v-8.4h-2.7v-1.2c1.5-0.2,2.4-0.5,3.2-0.9h1.4v10.6h3v1.6h-8.4V33.5z
	 M608,33.5h3.4v-8.4h-2.7v-1.2c1.5-0.2,2.4-0.5,3.2-0.9h1.4v10.6h3v1.6H608V33.5z M618.9,29c0-4.1,1.7-6.2,4.4-6.2s4.4,2.2,4.4,6.2
	c0,4-1.7,6.3-4.4,6.3S618.9,33.1,618.9,29z M626.1,29c0-3.4-1.1-4.7-2.7-4.7s-2.7,1.3-2.7,4.7c0,3.4,1.1,4.8,2.7,4.8
	S626.1,32.4,626.1,29z M622.1,28.9c0-0.8,0.6-1.3,1.2-1.3s1.2,0.5,1.2,1.3c0,0.8-0.6,1.3-1.2,1.3S622.1,29.7,622.1,28.9z
	 M630.8,33.5h3.4v-8.4h-2.7v-1.2c1.5-0.2,2.4-0.5,3.2-0.9h1.4v10.6h3v1.6h-8.4V33.5z M642.2,33.5h3.4v-8.4h-2.7v-1.2
	c1.5-0.2,2.4-0.5,3.2-0.9h1.4v10.6h3v1.6h-8.4V33.5z M653.6,33.5h3.4v-8.4h-2.7v-1.2c1.5-0.2,2.4-0.5,3.2-0.9h1.4v10.6h3v1.6h-8.4
	V33.5z M664.5,29c0-4.1,1.7-6.2,4.4-6.2s4.4,2.2,4.4,6.2c0,4-1.7,6.3-4.4,6.3S664.5,33.1,664.5,29z M671.7,29c0-3.4-1.1-4.7-2.7-4.7
	s-2.7,1.3-2.7,4.7c0,3.4,1.1,4.8,2.7,4.8S671.7,32.4,671.7,29z M667.7,28.9c0-0.8,0.6-1.3,1.2-1.3s1.2,0.5,1.2,1.3
	c0,0.8-0.6,1.3-1.2,1.3S667.7,29.7,667.7,28.9z M676.4,33.5h3.4v-8.4h-2.7v-1.2c1.5-0.2,2.4-0.5,3.2-0.9h1.4v10.6h3v1.6h-8.4V33.5z
	 M687.3,29c0-4.1,1.7-6.2,4.4-6.2s4.4,2.2,4.4,6.2c0,4-1.7,6.3-4.4,6.3S687.3,33.1,687.3,29z M694.5,29c0-3.4-1.1-4.7-2.7-4.7
	s-2.7,1.3-2.7,4.7c0,3.4,1.1,4.8,2.7,4.8S694.5,32.4,694.5,29z M690.5,28.9c0-0.8,0.6-1.3,1.2-1.3s1.2,0.5,1.2,1.3
	c0,0.8-0.6,1.3-1.2,1.3S690.5,29.7,690.5,28.9z M699.2,33.5h3.4v-8.4h-2.7v-1.2c1.5-0.2,2.4-0.5,3.2-0.9h1.4v10.6h3v1.6h-8.4V33.5z
	 M710.1,29c0-4.1,1.7-6.2,4.4-6.2s4.4,2.2,4.4,6.2c0,4-1.7,6.3-4.4,6.3S710.1,33.1,710.1,29z M717.2,29c0-3.4-1.1-4.7-2.7-4.7
	s-2.7,1.3-2.7,4.7c0,3.4,1.1,4.8,2.7,4.8S717.2,32.4,717.2,29z M713.3,28.9c0-0.8,0.6-1.3,1.2-1.3s1.2,0.5,1.2,1.3
	c0,0.8-0.6,1.3-1.2,1.3S713.3,29.7,713.3,28.9z M722,33.5h3.4v-8.4h-2.7v-1.2c1.5-0.2,2.4-0.5,3.2-0.9h1.4v10.6h3v1.6H722V33.5z
	 M733.4,33.5h3.4v-8.4h-2.7v-1.2c1.5-0.2,2.4-0.5,3.2-0.9h1.4v10.6h3v1.6h-8.4V33.5z M3.3,48c0-4.1,1.7-6.2,4.4-6.2
	c2.7,0,4.4,2.2,4.4,6.2c0,4-1.7,6.3-4.4,6.3C5.1,54.3,3.3,52.1,3.3,48z M10.5,48c0-3.4-1.1-4.7-2.7-4.7S5.1,44.6,5.1,48
	c0,3.4,1.1,4.8,2.7,4.8S10.5,51.4,10.5,48z M6.5,47.9c0-0.8,0.6-1.3,1.2-1.3S9,47.1,9,47.9c0,0.8-0.6,1.3-1.2,1.3S6.5,48.7,6.5,47.9
	z M15.2,52.5h3.4v-8.4H16v-1.2c1.5-0.2,2.4-0.5,3.2-0.9h1.4v10.6h3v1.6h-8.4V52.5z M26.6,52.5h3.4v-8.4h-2.7v-1.2
	c1.5-0.2,2.4-0.5,3.2-0.9H32v10.6h3v1.6h-8.4V52.5z M37.5,48c0-4.1,1.7-6.2,4.4-6.2c2.7,0,4.4,2.2,4.4,6.2c0,4-1.7,6.3-4.4,6.3
	C39.3,54.3,37.5,52.1,37.5,48z M44.7,48c0-3.4-1.1-4.7-2.7-4.7s-2.7,1.3-2.7,4.7c0,3.4,1.1,4.8,2.7,4.8S44.7,51.4,44.7,48z
	 M40.7,47.9c0-0.8,0.6-1.3,1.2-1.3s1.2,0.5,1.2,1.3c0,0.8-0.6,1.3-1.2,1.3S40.7,48.7,40.7,47.9z M48.9,48c0-4.1,1.7-6.2,4.4-6.2
	c2.7,0,4.4,2.2,4.4,6.2c0,4-1.7,6.3-4.4,6.3C50.7,54.3,48.9,52.1,48.9,48z M56.1,48c0-3.4-1.1-4.7-2.7-4.7s-2.7,1.3-2.7,4.7
	c0,3.4,1.1,4.8,2.7,4.8S56.1,51.4,56.1,48z M52.1,47.9c0-0.8,0.6-1.3,1.2-1.3s1.2,0.5,1.2,1.3c0,0.8-0.6,1.3-1.2,1.3
	S52.1,48.7,52.1,47.9z M60.8,52.5h3.4v-8.4h-2.7v-1.2c1.5-0.2,2.4-0.5,3.2-0.9h1.4v10.6h3v1.6h-8.4V52.5z M71.7,48
	c0-4.1,1.7-6.2,4.4-6.2c2.7,0,4.4,2.2,4.4,6.2c0,4-1.7,6.3-4.4,6.3C73.5,54.3,71.7,52.1,71.7,48z M78.9,48c0-3.4-1.1-4.7-2.7-4.7
	s-2.7,1.3-2.7,4.7c0,3.4,1.1,4.8,2.7,4.8S78.9,51.4,78.9,48z M74.9,47.9c0-0.8,0.6-1.3,1.2-1.3s1.2,0.5,1.2,1.3
	c0,0.8-0.6,1.3-1.2,1.3S74.9,48.7,74.9,47.9z M83.6,52.5h3.4v-8.4h-2.7v-1.2c1.5-0.2,2.4-0.5,3.2-0.9H89v10.6h3v1.6h-8.4V52.5z
	 M94.5,48c0-4.1,1.7-6.2,4.4-6.2c2.7,0,4.4,2.2,4.4,6.2c0,4-1.7,6.3-4.4,6.3C96.2,54.3,94.5,52.1,94.5,48z M101.7,48
	c0-3.4-1.1-4.7-2.7-4.7s-2.7,1.3-2.7,4.7c0,3.4,1.1,4.8,2.7,4.8S101.7,51.4,101.7,48z M97.7,47.9c0-0.8,0.6-1.3,1.2-1.3
	s1.2,0.5,1.2,1.3c0,0.8-0.6,1.3-1.2,1.3S97.7,48.7,97.7,47.9z M106.4,52.5h3.4v-8.4h-2.7v-1.2c1.5-0.2,2.4-0.5,3.2-0.9h1.4v10.6h3
	v1.6h-8.4V52.5z M117.3,48c0-4.1,1.7-6.2,4.4-6.2c2.7,0,4.4,2.2,4.4,6.2c0,4-1.7,6.3-4.4,6.3C119,54.3,117.3,52.1,117.3,48z
	 M124.5,48c0-3.4-1.1-4.7-2.7-4.7s-2.7,1.3-2.7,4.7c0,3.4,1.1,4.8,2.7,4.8S124.5,51.4,124.5,48z M120.5,47.9c0-0.8,0.6-1.3,1.2-1.3
	s1.2,0.5,1.2,1.3c0,0.8-0.6,1.3-1.2,1.3S120.5,48.7,120.5,47.9z M128.7,48c0-4.1,1.7-6.2,4.4-6.2c2.7,0,4.4,2.2,4.4,6.2
	c0,4-1.7,6.3-4.4,6.3C130.4,54.3,128.7,52.1,128.7,48z M135.9,48c0-3.4-1.1-4.7-2.7-4.7s-2.7,1.3-2.7,4.7c0,3.4,1.1,4.8,2.7,4.8
	S135.9,51.4,135.9,48z M131.9,47.9c0-0.8,0.6-1.3,1.2-1.3s1.2,0.5,1.2,1.3c0,0.8-0.6,1.3-1.2,1.3S131.9,48.7,131.9,47.9z M140.1,48
	c0-4.1,1.7-6.2,4.4-6.2c2.7,0,4.4,2.2,4.4,6.2c0,4-1.7,6.3-4.4,6.3C141.8,54.3,140.1,52.1,140.1,48z M147.3,48
	c0-3.4-1.1-4.7-2.7-4.7s-2.7,1.3-2.7,4.7c0,3.4,1.1,4.8,2.7,4.8S147.3,51.4,147.3,48z M143.3,47.9c0-0.8,0.6-1.3,1.2-1.3
	s1.2,0.5,1.2,1.3c0,0.8-0.6,1.3-1.2,1.3S143.3,48.7,143.3,47.9z M152,52.5h3.4v-8.4h-2.7v-1.2c1.5-0.2,2.4-0.5,3.2-0.9h1.4v10.6h3
	v1.6H152V52.5z M162.9,48c0-4.1,1.7-6.2,4.4-6.2c2.7,0,4.4,2.2,4.4,6.2c0,4-1.7,6.3-4.4,6.3C164.6,54.3,162.9,52.1,162.9,48z
	 M170.1,48c0-3.4-1.1-4.7-2.7-4.7s-2.7,1.3-2.7,4.7c0,3.4,1.1,4.8,2.7,4.8S170.1,51.4,170.1,48z M166.1,47.9c0-0.8,0.6-1.3,1.2-1.3
	s1.2,0.5,1.2,1.3c0,0.8-0.6,1.3-1.2,1.3S166.1,48.7,166.1,47.9z M174.8,52.5h3.4v-8.4h-2.7v-1.2c1.5-0.2,2.4-0.5,3.2-0.9h1.4v10.6h3
	v1.6h-8.4V52.5z M186.2,52.5h3.4v-8.4H187v-1.2c1.5-0.2,2.4-0.5,3.2-0.9h1.4v10.6h3v1.6h-8.4V52.5z M197.1,48c0-4.1,1.7-6.2,4.4-6.2
	c2.7,0,4.4,2.2,4.4,6.2c0,4-1.7,6.3-4.4,6.3C198.8,54.3,197.1,52.1,197.1,48z M204.3,48c0-3.4-1.1-4.7-2.7-4.7s-2.7,1.3-2.7,4.7
	c0,3.4,1.1,4.8,2.7,4.8S204.3,51.4,204.3,48z M200.3,47.9c0-0.8,0.6-1.3,1.2-1.3s1.2,0.5,1.2,1.3c0,0.8-0.6,1.3-1.2,1.3
	S200.3,48.7,200.3,47.9z M209,52.5h3.4v-8.4h-2.7v-1.2c1.5-0.2,2.4-0.5,3.2-0.9h1.4v10.6h3v1.6H209V52.5z M220.4,52.5h3.4v-8.4h-2.7
	v-1.2c1.5-0.2,2.4-0.5,3.2-0.9h1.4v10.6h3v1.6h-8.4V52.5z M231.3,48c0-4.1,1.7-6.2,4.4-6.2c2.7,0,4.4,2.2,4.4,6.2
	c0,4-1.7,6.3-4.4,6.3C233,54.3,231.3,52.1,231.3,48z M238.5,48c0-3.4-1.1-4.7-2.7-4.7s-2.7,1.3-2.7,4.7c0,3.4,1.1,4.8,2.7,4.8
	S238.5,51.4,238.5,48z M234.5,47.9c0-0.8,0.6-1.3,1.2-1.3s1.2,0.5,1.2,1.3c0,0.8-0.6,1.3-1.2,1.3S234.5,48.7,234.5,47.9z
	 M243.2,52.5h3.4v-8.4H244v-1.2c1.5-0.2,2.4-0.5,3.2-0.9h1.4v10.6h3v1.6h-8.4V52.5z M254.6,52.5h3.4v-8.4h-2.7v-1.2
	c1.5-0.2,2.4-0.5,3.2-0.9h1.4v10.6h3v1.6h-8.4V52.5z M266,52.5h3.4v-8.4h-2.7v-1.2c1.5-0.2,2.4-0.5,3.2-0.9h1.4v10.6h3v1.6H266V52.5
	z M276.9,48c0-4.1,1.7-6.2,4.4-6.2c2.7,0,4.4,2.2,4.4,6.2c0,4-1.7,6.3-4.4,6.3C278.6,54.3,276.9,52.1,276.9,48z M284.1,48
	c0-3.4-1.1-4.7-2.7-4.7s-2.7,1.3-2.7,4.7c0,3.4,1.1,4.8,2.7,4.8S284.1,51.4,284.1,48z M280.1,47.9c0-0.8,0.6-1.3,1.2-1.3
	s1.2,0.5,1.2,1.3c0,0.8-0.6,1.3-1.2,1.3S280.1,48.7,280.1,47.9z M288.8,52.5h3.4v-8.4h-2.7v-1.2c1.5-0.2,2.4-0.5,3.2-0.9h1.4v10.6h3
	v1.6h-8.4V52.5z M299.7,48c0-4.1,1.7-6.2,4.4-6.2c2.7,0,4.4,2.2,4.4,6.2c0,4-1.7,6.3-4.4,6.3C301.4,54.3,299.7,52.1,299.7,48z
	 M306.9,48c0-3.4-1.1-4.7-2.7-4.7s-2.7,1.3-2.7,4.7c0,3.4,1.1,4.8,2.7,4.8S306.9,51.4,306.9,48z M302.9,47.9c0-0.8,0.6-1.3,1.2-1.3
	s1.2,0.5,1.2,1.3c0,0.8-0.6,1.3-1.2,1.3S302.9,48.7,302.9,47.9z M311.6,52.5h3.4v-8.4h-2.7v-1.2c1.5-0.2,2.4-0.5,3.2-0.9h1.4v10.6h3
	v1.6h-8.4V52.5z M322.5,48c0-4.1,1.7-6.2,4.4-6.2c2.7,0,4.4,2.2,4.4,6.2c0,4-1.7,6.3-4.4,6.3C324.2,54.3,322.5,52.1,322.5,48z
	 M329.7,48c0-3.4-1.1-4.7-2.7-4.7s-2.7,1.3-2.7,4.7c0,3.4,1.1,4.8,2.7,4.8S329.7,51.4,329.7,48z M325.7,47.9c0-0.8,0.6-1.3,1.2-1.3
	s1.2,0.5,1.2,1.3c0,0.8-0.6,1.3-1.2,1.3S325.7,48.7,325.7,47.9z M334.4,52.5h3.4v-8.4h-2.7v-1.2c1.5-0.2,2.4-0.5,3.2-0.9h1.4v10.6h3
	v1.6h-8.4V52.5z M345.3,48c0-4.1,1.7-6.2,4.4-6.2c2.7,0,4.4,2.2,4.4,6.2c0,4-1.7,6.3-4.4,6.3C347,54.3,345.3,52.1,345.3,48z
	 M352.5,48c0-3.4-1.1-4.7-2.7-4.7s-2.7,1.3-2.7,4.7c0,3.4,1.1,4.8,2.7,4.8S352.5,51.4,352.5,48z M348.5,47.9c0-0.8,0.6-1.3,1.2-1.3
	s1.2,0.5,1.2,1.3c0,0.8-0.6,1.3-1.2,1.3S348.5,48.7,348.5,47.9z M357.2,52.5h3.4v-8.4H358v-1.2c1.5-0.2,2.4-0.5,3.2-0.9h1.4v10.6h3
	v1.6h-8.4V52.5z M368.1,48c0-4.1,1.7-6.2,4.4-6.2c2.7,0,4.4,2.2,4.4,6.2c0,4-1.7,6.3-4.4,6.3C369.8,54.3,368.1,52.1,368.1,48z
	 M375.3,48c0-3.4-1.1-4.7-2.7-4.7s-2.7,1.3-2.7,4.7c0,3.4,1.1,4.8,2.7,4.8S375.3,51.4,375.3,48z M371.3,47.9c0-0.8,0.6-1.3,1.2-1.3
	s1.2,0.5,1.2,1.3c0,0.8-0.6,1.3-1.2,1.3S371.3,48.7,371.3,47.9z M380,52.5h3.4v-8.4h-2.7v-1.2c1.5-0.2,2.4-0.5,3.2-0.9h1.4v10.6h3
	v1.6H380V52.5z M390.9,48c0-4.1,1.7-6.2,4.4-6.2s4.4,2.2,4.4,6.2c0,4-1.7,6.3-4.4,6.3S390.9,52.1,390.9,48z M398.1,48
	c0-3.4-1.1-4.7-2.7-4.7s-2.7,1.3-2.7,4.7c0,3.4,1.1,4.8,2.7,4.8S398.1,51.4,398.1,48z M394.1,47.9c0-0.8,0.6-1.3,1.2-1.3
	s1.2,0.5,1.2,1.3c0,0.8-0.6,1.3-1.2,1.3S394.1,48.7,394.1,47.9z M402.8,52.5h3.4v-8.4h-2.7v-1.2c1.5-0.2,2.4-0.5,3.2-0.9h1.4v10.6h3
	v1.6h-8.4V52.5z M413.7,48c0-4.1,1.7-6.2,4.4-6.2s4.4,2.2,4.4,6.2c0,4-1.7,6.3-4.4,6.3S413.7,52.1,413.7,48z M420.9,48
	c0-3.4-1.1-4.7-2.7-4.7s-2.7,1.3-2.7,4.7c0,3.4,1.1,4.8,2.7,4.8S420.9,51.4,420.9,48z M416.9,47.9c0-0.8,0.6-1.3,1.2-1.3
	s1.2,0.5,1.2,1.3c0,0.8-0.6,1.3-1.2,1.3S416.9,48.7,416.9,47.9z M425.6,52.5h3.4v-8.4h-2.7v-1.2c1.5-0.2,2.4-0.5,3.2-0.9h1.4v10.6h3
	v1.6h-8.4V52.5z M436.5,48c0-4.1,1.7-6.2,4.4-6.2s4.4,2.2,4.4,6.2c0,4-1.7,6.3-4.4,6.3S436.5,52.1,436.5,48z M443.7,48
	c0-3.4-1.1-4.7-2.7-4.7s-2.7,1.3-2.7,4.7c0,3.4,1.1,4.8,2.7,4.8S443.7,51.4,443.7,48z M439.7,47.9c0-0.8,0.6-1.3,1.2-1.3
	s1.2,0.5,1.2,1.3c0,0.8-0.6,1.3-1.2,1.3S439.7,48.7,439.7,47.9z M447.9,48c0-4.1,1.7-6.2,4.4-6.2s4.4,2.2,4.4,6.2
	c0,4-1.7,6.3-4.4,6.3S447.9,52.1,447.9,48z M455.1,48c0-3.4-1.1-4.7-2.7-4.7s-2.7,1.3-2.7,4.7c0,3.4,1.1,4.8,2.7,4.8
	S455.1,51.4,455.1,48z M451.1,47.9c0-0.8,0.6-1.3,1.2-1.3s1.2,0.5,1.2,1.3c0,0.8-0.6,1.3-1.2,1.3S451.1,48.7,451.1,47.9z M459.3,48
	c0-4.1,1.7-6.2,4.4-6.2s4.4,2.2,4.4,6.2c0,4-1.7,6.3-4.4,6.3S459.3,52.1,459.3,48z M466.5,48c0-3.4-1.1-4.7-2.7-4.7
	s-2.7,1.3-2.7,4.7c0,3.4,1.1,4.8,2.7,4.8S466.5,51.4,466.5,48z M462.5,47.9c0-0.8,0.6-1.3,1.2-1.3s1.2,0.5,1.2,1.3
	c0,0.8-0.6,1.3-1.2,1.3S462.5,48.7,462.5,47.9z M470.7,48c0-4.1,1.7-6.2,4.4-6.2s4.4,2.2,4.4,6.2c0,4-1.7,6.3-4.4,6.3
	S470.7,52.1,470.7,48z M477.9,48c0-3.4-1.1-4.7-2.7-4.7s-2.7,1.3-2.7,4.7c0,3.4,1.1,4.8,2.7,4.8S477.9,51.4,477.9,48z M473.9,47.9
	c0-0.8,0.6-1.3,1.2-1.3s1.2,0.5,1.2,1.3c0,0.8-0.6,1.3-1.2,1.3S473.9,48.7,473.9,47.9z M482.6,52.5h3.4v-8.4h-2.7v-1.2
	c1.5-0.2,2.4-0.5,3.2-0.9h1.4v10.6h3v1.6h-8.4V52.5z M493.5,48c0-4.1,1.7-6.2,4.4-6.2s4.4,2.2,4.4,6.2c0,4-1.7,6.3-4.4,6.3
	S493.5,52.1,493.5,48z M500.7,48c0-3.4-1.1-4.7-2.7-4.7s-2.7,1.3-2.7,4.7c0,3.4,1.1,4.8,2.7,4.8S500.7,51.4,500.7,48z M496.7,47.9
	c0-0.8,0.6-1.3,1.2-1.3s1.2,0.5,1.2,1.3c0,0.8-0.6,1.3-1.2,1.3S496.7,48.7,496.7,47.9z M505.4,52.5h3.4v-8.4h-2.7v-1.2
	c1.5-0.2,2.4-0.5,3.2-0.9h1.4v10.6h3v1.6h-8.4V52.5z M516.3,48c0-4.1,1.7-6.2,4.4-6.2s4.4,2.2,4.4,6.2c0,4-1.7,6.3-4.4,6.3
	S516.3,52.1,516.3,48z M523.5,48c0-3.4-1.1-4.7-2.7-4.7s-2.7,1.3-2.7,4.7c0,3.4,1.1,4.8,2.7,4.8S523.5,51.4,523.5,48z M519.5,47.9
	c0-0.8,0.6-1.3,1.2-1.3s1.2,0.5,1.2,1.3c0,0.8-0.6,1.3-1.2,1.3S519.5,48.7,519.5,47.9z M527.7,48c0-4.1,1.7-6.2,4.4-6.2
	s4.4,2.2,4.4,6.2c0,4-1.7,6.3-4.4,6.3S527.7,52.1,527.7,48z M534.9,48c0-3.4-1.1-4.7-2.7-4.7s-2.7,1.3-2.7,4.7
	c0,3.4,1.1,4.8,2.7,4.8S534.9,51.4,534.9,48z M530.9,47.9c0-0.8,0.6-1.3,1.2-1.3s1.2,0.5,1.2,1.3c0,0.8-0.6,1.3-1.2,1.3
	S530.9,48.7,530.9,47.9z M539.6,52.5h3.4v-8.4h-2.7v-1.2c1.5-0.2,2.4-0.5,3.2-0.9h1.4v10.6h3v1.6h-8.4V52.5z M550.5,48
	c0-4.1,1.7-6.2,4.4-6.2s4.4,2.2,4.4,6.2c0,4-1.7,6.3-4.4,6.3S550.5,52.1,550.5,48z M557.7,48c0-3.4-1.1-4.7-2.7-4.7
	s-2.7,1.3-2.7,4.7c0,3.4,1.1,4.8,2.7,4.8S557.7,51.4,557.7,48z M553.7,47.9c0-0.8,0.6-1.3,1.2-1.3s1.2,0.5,1.2,1.3
	c0,0.8-0.6,1.3-1.2,1.3S553.7,48.7,553.7,47.9z M562.4,52.5h3.4v-8.4h-2.7v-1.2c1.5-0.2,2.4-0.5,3.2-0.9h1.4v10.6h3v1.6h-8.4V52.5z
	 M573.3,48c0-4.1,1.7-6.2,4.4-6.2s4.4,2.2,4.4,6.2c0,4-1.7,6.3-4.4,6.3S573.3,52.1,573.3,48z M580.5,48c0-3.4-1.1-4.7-2.7-4.7
	s-2.7,1.3-2.7,4.7c0,3.4,1.1,4.8,2.7,4.8S580.5,51.4,580.5,48z M576.5,47.9c0-0.8,0.6-1.3,1.2-1.3s1.2,0.5,1.2,1.3
	c0,0.8-0.6,1.3-1.2,1.3S576.5,48.7,576.5,47.9z M585.2,52.5h3.4v-8.4h-2.7v-1.2c1.5-0.2,2.4-0.5,3.2-0.9h1.4v10.6h3v1.6h-8.4V52.5z
	 M596.1,48c0-4.1,1.7-6.2,4.4-6.2s4.4,2.2,4.4,6.2c0,4-1.7,6.3-4.4,6.3S596.1,52.1,596.1,48z M603.3,48c0-3.4-1.1-4.7-2.7-4.7
	s-2.7,1.3-2.7,4.7c0,3.4,1.1,4.8,2.7,4.8S603.3,51.4,603.3,48z M599.3,47.9c0-0.8,0.6-1.3,1.2-1.3s1.2,0.5,1.2,1.3
	c0,0.8-0.6,1.3-1.2,1.3S599.3,48.7,599.3,47.9z M607.5,48c0-4.1,1.7-6.2,4.4-6.2s4.4,2.2,4.4,6.2c0,4-1.7,6.3-4.4,6.3
	S607.5,52.1,607.5,48z M614.7,48c0-3.4-1.1-4.7-2.7-4.7s-2.7,1.3-2.7,4.7c0,3.4,1.1,4.8,2.7,4.8S614.7,51.4,614.7,48z M610.7,47.9
	c0-0.8,0.6-1.3,1.2-1.3s1.2,0.5,1.2,1.3c0,0.8-0.6,1.3-1.2,1.3S610.7,48.7,610.7,47.9z M619.4,52.5h3.4v-8.4h-2.7v-1.2
	c1.5-0.2,2.4-0.5,3.2-0.9h1.4v10.6h3v1.6h-8.4V52.5z M630.8,52.5h3.4v-8.4h-2.7v-1.2c1.5-0.2,2.4-0.5,3.2-0.9h1.4v10.6h3v1.6h-8.4
	V52.5z M641.7,48c0-4.1,1.7-6.2,4.4-6.2s4.4,2.2,4.4,6.2c0,4-1.7,6.3-4.4,6.3S641.7,52.1,641.7,48z M648.9,48c0-3.4-1.1-4.7-2.7-4.7
	s-2.7,1.3-2.7,4.7c0,3.4,1.1,4.8,2.7,4.8S648.9,51.4,648.9,48z M644.9,47.9c0-0.8,0.6-1.3,1.2-1.3s1.2,0.5,1.2,1.3
	c0,0.8-0.6,1.3-1.2,1.3S644.9,48.7,644.9,47.9z M653.6,52.5h3.4v-8.4h-2.7v-1.2c1.5-0.2,2.4-0.5,3.2-0.9h1.4v10.6h3v1.6h-8.4V52.5z
	 M665,52.5h3.4v-8.4h-2.7v-1.2c1.5-0.2,2.4-0.5,3.2-0.9h1.4v10.6h3v1.6H665V52.5z M676.4,52.5h3.4v-8.4h-2.7v-1.2
	c1.5-0.2,2.4-0.5,3.2-0.9h1.4v10.6h3v1.6h-8.4V52.5z M687.8,52.5h3.4v-8.4h-2.7v-1.2c1.5-0.2,2.4-0.5,3.2-0.9h1.4v10.6h3v1.6h-8.4
	V52.5z M699.2,52.5h3.4v-8.4h-2.7v-1.2c1.5-0.2,2.4-0.5,3.2-0.9h1.4v10.6h3v1.6h-8.4V52.5z M710.6,52.5h3.4v-8.4h-2.7v-1.2
	c1.5-0.2,2.4-0.5,3.2-0.9h1.4v10.6h3v1.6h-8.4V52.5z M721.5,48c0-4.1,1.7-6.2,4.4-6.2s4.4,2.2,4.4,6.2c0,4-1.7,6.3-4.4,6.3
	S721.5,52.1,721.5,48z M728.6,48c0-3.4-1.1-4.7-2.7-4.7s-2.7,1.3-2.7,4.7c0,3.4,1.1,4.8,2.7,4.8S728.6,51.4,728.6,48z M724.7,47.9
	c0-0.8,0.6-1.3,1.2-1.3s1.2,0.5,1.2,1.3c0,0.8-0.6,1.3-1.2,1.3S724.7,48.7,724.7,47.9z M733.4,52.5h3.4v-8.4h-2.7v-1.2
	c1.5-0.2,2.4-0.5,3.2-0.9h1.4v10.6h3v1.6h-8.4V52.5z M3.3,67c0-4.1,1.7-6.2,4.4-6.2c2.7,0,4.4,2.2,4.4,6.2c0,4-1.7,6.3-4.4,6.3
	C5.1,73.3,3.3,71.1,3.3,67z M10.5,67c0-3.4-1.1-4.7-2.7-4.7S5.1,63.6,5.1,67s1.1,4.8,2.7,4.8S10.5,70.4,10.5,67z M6.5,66.9
	c0-0.8,0.6-1.3,1.2-1.3S9,66.1,9,66.9c0,0.8-0.6,1.3-1.2,1.3S6.5,67.7,6.5,66.9z M15.2,71.5h3.4v-8.4H16v-1.2
	c1.5-0.2,2.4-0.5,3.2-0.9h1.4v10.6h3v1.6h-8.4V71.5z M26.6,71.5h3.4v-8.4h-2.7v-1.2c1.5-0.2,2.4-0.5,3.2-0.9H32v10.6h3v1.6h-8.4
	V71.5z M37.5,67c0-4.1,1.7-6.2,4.4-6.2c2.7,0,4.4,2.2,4.4,6.2c0,4-1.7,6.3-4.4,6.3C39.3,73.3,37.5,71.1,37.5,67z M44.7,67
	c0-3.4-1.1-4.7-2.7-4.7s-2.7,1.3-2.7,4.7s1.1,4.8,2.7,4.8S44.7,70.4,44.7,67z M40.7,66.9c0-0.8,0.6-1.3,1.2-1.3s1.2,0.5,1.2,1.3
	c0,0.8-0.6,1.3-1.2,1.3S40.7,67.7,40.7,66.9z M48.9,67c0-4.1,1.7-6.2,4.4-6.2c2.7,0,4.4,2.2,4.4,6.2c0,4-1.7,6.3-4.4,6.3
	C50.7,73.3,48.9,71.1,48.9,67z M56.1,67c0-3.4-1.1-4.7-2.7-4.7s-2.7,1.3-2.7,4.7s1.1,4.8,2.7,4.8S56.1,70.4,56.1,67z M52.1,66.9
	c0-0.8,0.6-1.3,1.2-1.3s1.2,0.5,1.2,1.3c0,0.8-0.6,1.3-1.2,1.3S52.1,67.7,52.1,66.9z M60.8,71.5h3.4v-8.4h-2.7v-1.2
	c1.5-0.2,2.4-0.5,3.2-0.9h1.4v10.6h3v1.6h-8.4V71.5z M71.7,67c0-4.1,1.7-6.2,4.4-6.2c2.7,0,4.4,2.2,4.4,6.2c0,4-1.7,6.3-4.4,6.3
	C73.5,73.3,71.7,71.1,71.7,67z M78.9,67c0-3.4-1.1-4.7-2.7-4.7s-2.7,1.3-2.7,4.7s1.1,4.8,2.7,4.8S78.9,70.4,78.9,67z M74.9,66.9
	c0-0.8,0.6-1.3,1.2-1.3s1.2,0.5,1.2,1.3c0,0.8-0.6,1.3-1.2,1.3S74.9,67.7,74.9,66.9z M83.6,71.5h3.4v-8.4h-2.7v-1.2
	c1.5-0.2,2.4-0.5,3.2-0.9H89v10.6h3v1.6h-8.4V71.5z M94.5,67c0-4.1,1.7-6.2,4.4-6.2c2.7,0,4.4,2.2,4.4,6.2c0,4-1.7,6.3-4.4,6.3
	C96.2,73.3,94.5,71.1,94.5,67z M101.7,67c0-3.4-1.1-4.7-2.7-4.7s-2.7,1.3-2.7,4.7s1.1,4.8,2.7,4.8S101.7,70.4,101.7,67z M97.7,66.9
	c0-0.8,0.6-1.3,1.2-1.3s1.2,0.5,1.2,1.3c0,0.8-0.6,1.3-1.2,1.3S97.7,67.7,97.7,66.9z M106.4,71.5h3.4v-8.4h-2.7v-1.2
	c1.5-0.2,2.4-0.5,3.2-0.9h1.4v10.6h3v1.6h-8.4V71.5z M117.3,67c0-4.1,1.7-6.2,4.4-6.2c2.7,0,4.4,2.2,4.4,6.2c0,4-1.7,6.3-4.4,6.3
	C119,73.3,117.3,71.1,117.3,67z M124.5,67c0-3.4-1.1-4.7-2.7-4.7s-2.7,1.3-2.7,4.7s1.1,4.8,2.7,4.8S124.5,70.4,124.5,67z
	 M120.5,66.9c0-0.8,0.6-1.3,1.2-1.3s1.2,0.5,1.2,1.3c0,0.8-0.6,1.3-1.2,1.3S120.5,67.7,120.5,66.9z M129.2,71.5h3.4v-8.4H130v-1.2
	c1.5-0.2,2.4-0.5,3.2-0.9h1.4v10.6h3v1.6h-8.4V71.5z M140.1,67c0-4.1,1.7-6.2,4.4-6.2c2.7,0,4.4,2.2,4.4,6.2c0,4-1.7,6.3-4.4,6.3
	C141.8,73.3,140.1,71.1,140.1,67z M147.3,67c0-3.4-1.1-4.7-2.7-4.7s-2.7,1.3-2.7,4.7s1.1,4.8,2.7,4.8S147.3,70.4,147.3,67z
	 M143.3,66.9c0-0.8,0.6-1.3,1.2-1.3s1.2,0.5,1.2,1.3c0,0.8-0.6,1.3-1.2,1.3S143.3,67.7,143.3,66.9z M152,71.5h3.4v-8.4h-2.7v-1.2
	c1.5-0.2,2.4-0.5,3.2-0.9h1.4v10.6h3v1.6H152V71.5z M162.9,67c0-4.1,1.7-6.2,4.4-6.2c2.7,0,4.4,2.2,4.4,6.2c0,4-1.7,6.3-4.4,6.3
	C164.6,73.3,162.9,71.1,162.9,67z M170.1,67c0-3.4-1.1-4.7-2.7-4.7s-2.7,1.3-2.7,4.7s1.1,4.8,2.7,4.8S170.1,70.4,170.1,67z
	 M166.1,66.9c0-0.8,0.6-1.3,1.2-1.3s1.2,0.5,1.2,1.3c0,0.8-0.6,1.3-1.2,1.3S166.1,67.7,166.1,66.9z M174.3,67c0-4.1,1.7-6.2,4.4-6.2
	c2.7,0,4.4,2.2,4.4,6.2c0,4-1.7,6.3-4.4,6.3C176,73.3,174.3,71.1,174.3,67z M181.5,67c0-3.4-1.1-4.7-2.7-4.7s-2.7,1.3-2.7,4.7
	s1.1,4.8,2.7,4.8S181.5,70.4,181.5,67z M177.5,66.9c0-0.8,0.6-1.3,1.2-1.3s1.2,0.5,1.2,1.3c0,0.8-0.6,1.3-1.2,1.3
	S177.5,67.7,177.5,66.9z M185.7,67c0-4.1,1.7-6.2,4.4-6.2c2.7,0,4.4,2.2,4.4,6.2c0,4-1.7,6.3-4.4,6.3
	C187.4,73.3,185.7,71.1,185.7,67z M192.9,67c0-3.4-1.1-4.7-2.7-4.7s-2.7,1.3-2.7,4.7s1.1,4.8,2.7,4.8S192.9,70.4,192.9,67z
	 M188.9,66.9c0-0.8,0.6-1.3,1.2-1.3s1.2,0.5,1.2,1.3c0,0.8-0.6,1.3-1.2,1.3S188.9,67.7,188.9,66.9z M197.1,67c0-4.1,1.7-6.2,4.4-6.2
	c2.7,0,4.4,2.2,4.4,6.2c0,4-1.7,6.3-4.4,6.3C198.8,73.3,197.1,71.1,197.1,67z M204.3,67c0-3.4-1.1-4.7-2.7-4.7s-2.7,1.3-2.7,4.7
	s1.1,4.8,2.7,4.8S204.3,70.4,204.3,67z M200.3,66.9c0-0.8,0.6-1.3,1.2-1.3s1.2,0.5,1.2,1.3c0,0.8-0.6,1.3-1.2,1.3
	S200.3,67.7,200.3,66.9z M209,71.5h3.4v-8.4h-2.7v-1.2c1.5-0.2,2.4-0.5,3.2-0.9h1.4v10.6h3v1.6H209V71.5z M219.9,67
	c0-4.1,1.7-6.2,4.4-6.2c2.7,0,4.4,2.2,4.4,6.2c0,4-1.7,6.3-4.4,6.3C221.6,73.3,219.9,71.1,219.9,67z M227.1,67
	c0-3.4-1.1-4.7-2.7-4.7s-2.7,1.3-2.7,4.7s1.1,4.8,2.7,4.8S227.1,70.4,227.1,67z M223.1,66.9c0-0.8,0.6-1.3,1.2-1.3s1.2,0.5,1.2,1.3
	c0,0.8-0.6,1.3-1.2,1.3S223.1,67.7,223.1,66.9z M231.8,71.5h3.4v-8.4h-2.7v-1.2c1.5-0.2,2.4-0.5,3.2-0.9h1.4v10.6h3v1.6h-8.4V71.5z
	 M242.7,67c0-4.1,1.7-6.2,4.4-6.2c2.7,0,4.4,2.2,4.4,6.2c0,4-1.7,6.3-4.4,6.3C244.4,73.3,242.7,71.1,242.7,67z M249.9,67
	c0-3.4-1.1-4.7-2.7-4.7s-2.7,1.3-2.7,4.7s1.1,4.8,2.7,4.8S249.9,70.4,249.9,67z M245.9,66.9c0-0.8,0.6-1.3,1.2-1.3s1.2,0.5,1.2,1.3
	c0,0.8-0.6,1.3-1.2,1.3S245.9,67.7,245.9,66.9z M254.6,71.5h3.4v-8.4h-2.7v-1.2c1.5-0.2,2.4-0.5,3.2-0.9h1.4v10.6h3v1.6h-8.4V71.5z
	 M266,71.5h3.4v-8.4h-2.7v-1.2c1.5-0.2,2.4-0.5,3.2-0.9h1.4v10.6h3v1.6H266V71.5z M277.4,71.5h3.4v-8.4h-2.7v-1.2
	c1.5-0.2,2.4-0.5,3.2-0.9h1.4v10.6h3v1.6h-8.4V71.5z M288.3,67c0-4.1,1.7-6.2,4.4-6.2c2.7,0,4.4,2.2,4.4,6.2c0,4-1.7,6.3-4.4,6.3
	C290,73.3,288.3,71.1,288.3,67z M295.5,67c0-3.4-1.1-4.7-2.7-4.7s-2.7,1.3-2.7,4.7s1.1,4.8,2.7,4.8S295.5,70.4,295.5,67z
	 M291.5,66.9c0-0.8,0.6-1.3,1.2-1.3s1.2,0.5,1.2,1.3c0,0.8-0.6,1.3-1.2,1.3S291.5,67.7,291.5,66.9z M300.2,71.5h3.4v-8.4H301v-1.2
	c1.5-0.2,2.4-0.5,3.2-0.9h1.4v10.6h3v1.6h-8.4V71.5z M311.1,67c0-4.1,1.7-6.2,4.4-6.2c2.7,0,4.4,2.2,4.4,6.2c0,4-1.7,6.3-4.4,6.3
	C312.8,73.3,311.1,71.1,311.1,67z M318.3,67c0-3.4-1.1-4.7-2.7-4.7s-2.7,1.3-2.7,4.7s1.1,4.8,2.7,4.8S318.3,70.4,318.3,67z
	 M314.3,66.9c0-0.8,0.6-1.3,1.2-1.3s1.2,0.5,1.2,1.3c0,0.8-0.6,1.3-1.2,1.3S314.3,67.7,314.3,66.9z M323,71.5h3.4v-8.4h-2.7v-1.2
	c1.5-0.2,2.4-0.5,3.2-0.9h1.4v10.6h3v1.6H323V71.5z M333.9,67c0-4.1,1.7-6.2,4.4-6.2c2.7,0,4.4,2.2,4.4,6.2c0,4-1.7,6.3-4.4,6.3
	C335.6,73.3,333.9,71.1,333.9,67z M341.1,67c0-3.4-1.1-4.7-2.7-4.7s-2.7,1.3-2.7,4.7s1.1,4.8,2.7,4.8S341.1,70.4,341.1,67z
	 M337.1,66.9c0-0.8,0.6-1.3,1.2-1.3s1.2,0.5,1.2,1.3c0,0.8-0.6,1.3-1.2,1.3S337.1,67.7,337.1,66.9z M345.8,71.5h3.4v-8.4h-2.7v-1.2
	c1.5-0.2,2.4-0.5,3.2-0.9h1.4v10.6h3v1.6h-8.4V71.5z M356.7,67c0-4.1,1.7-6.2,4.4-6.2c2.7,0,4.4,2.2,4.4,6.2c0,4-1.7,6.3-4.4,6.3
	C358.4,73.3,356.7,71.1,356.7,67z M363.9,67c0-3.4-1.1-4.7-2.7-4.7s-2.7,1.3-2.7,4.7s1.1,4.8,2.7,4.8S363.9,70.4,363.9,67z
	 M359.9,66.9c0-0.8,0.6-1.3,1.2-1.3s1.2,0.5,1.2,1.3c0,0.8-0.6,1.3-1.2,1.3S359.9,67.7,359.9,66.9z M368.1,67c0-4.1,1.7-6.2,4.4-6.2
	c2.7,0,4.4,2.2,4.4,6.2c0,4-1.7,6.3-4.4,6.3C369.8,73.3,368.1,71.1,368.1,67z M375.3,67c0-3.4-1.1-4.7-2.7-4.7s-2.7,1.3-2.7,4.7
	s1.1,4.8,2.7,4.8S375.3,70.4,375.3,67z M371.3,66.9c0-0.8,0.6-1.3,1.2-1.3s1.2,0.5,1.2,1.3c0,0.8-0.6,1.3-1.2,1.3
	S371.3,67.7,371.3,66.9z M380,71.5h3.4v-8.4h-2.7v-1.2c1.5-0.2,2.4-0.5,3.2-0.9h1.4v10.6h3v1.6H380V71.5z M390.9,67
	c0-4.1,1.7-6.2,4.4-6.2s4.4,2.2,4.4,6.2c0,4-1.7,6.3-4.4,6.3S390.9,71.1,390.9,67z M398.1,67c0-3.4-1.1-4.7-2.7-4.7
	s-2.7,1.3-2.7,4.7s1.1,4.8,2.7,4.8S398.1,70.4,398.1,67z M394.1,66.9c0-0.8,0.6-1.3,1.2-1.3s1.2,0.5,1.2,1.3c0,0.8-0.6,1.3-1.2,1.3
	S394.1,67.7,394.1,66.9z M402.8,71.5h3.4v-8.4h-2.7v-1.2c1.5-0.2,2.4-0.5,3.2-0.9h1.4v10.6h3v1.6h-8.4V71.5z M413.7,67
	c0-4.1,1.7-6.2,4.4-6.2s4.4,2.2,4.4,6.2c0,4-1.7,6.3-4.4,6.3S413.7,71.1,413.7,67z M420.9,67c0-3.4-1.1-4.7-2.7-4.7
	s-2.7,1.3-2.7,4.7s1.1,4.8,2.7,4.8S420.9,70.4,420.9,67z M416.9,66.9c0-0.8,0.6-1.3,1.2-1.3s1.2,0.5,1.2,1.3c0,0.8-0.6,1.3-1.2,1.3
	S416.9,67.7,416.9,66.9z M425.6,71.5h3.4v-8.4h-2.7v-1.2c1.5-0.2,2.4-0.5,3.2-0.9h1.4v10.6h3v1.6h-8.4V71.5z M436.5,67
	c0-4.1,1.7-6.2,4.4-6.2s4.4,2.2,4.4,6.2c0,4-1.7,6.3-4.4,6.3S436.5,71.1,436.5,67z M443.7,67c0-3.4-1.1-4.7-2.7-4.7
	s-2.7,1.3-2.7,4.7s1.1,4.8,2.7,4.8S443.7,70.4,443.7,67z M439.7,66.9c0-0.8,0.6-1.3,1.2-1.3s1.2,0.5,1.2,1.3c0,0.8-0.6,1.3-1.2,1.3
	S439.7,67.7,439.7,66.9z M447.9,67c0-4.1,1.7-6.2,4.4-6.2s4.4,2.2,4.4,6.2c0,4-1.7,6.3-4.4,6.3S447.9,71.1,447.9,67z M455.1,67
	c0-3.4-1.1-4.7-2.7-4.7s-2.7,1.3-2.7,4.7s1.1,4.8,2.7,4.8S455.1,70.4,455.1,67z M451.1,66.9c0-0.8,0.6-1.3,1.2-1.3s1.2,0.5,1.2,1.3
	c0,0.8-0.6,1.3-1.2,1.3S451.1,67.7,451.1,66.9z M459.8,71.5h3.4v-8.4h-2.7v-1.2c1.5-0.2,2.4-0.5,3.2-0.9h1.4v10.6h3v1.6h-8.4V71.5z
	 M470.7,67c0-4.1,1.7-6.2,4.4-6.2s4.4,2.2,4.4,6.2c0,4-1.7,6.3-4.4,6.3S470.7,71.1,470.7,67z M477.9,67c0-3.4-1.1-4.7-2.7-4.7
	s-2.7,1.3-2.7,4.7s1.1,4.8,2.7,4.8S477.9,70.4,477.9,67z M473.9,66.9c0-0.8,0.6-1.3,1.2-1.3s1.2,0.5,1.2,1.3c0,0.8-0.6,1.3-1.2,1.3
	S473.9,67.7,473.9,66.9z M482.6,71.5h3.4v-8.4h-2.7v-1.2c1.5-0.2,2.4-0.5,3.2-0.9h1.4v10.6h3v1.6h-8.4V71.5z M493.5,67
	c0-4.1,1.7-6.2,4.4-6.2s4.4,2.2,4.4,6.2c0,4-1.7,6.3-4.4,6.3S493.5,71.1,493.5,67z M500.7,67c0-3.4-1.1-4.7-2.7-4.7
	s-2.7,1.3-2.7,4.7s1.1,4.8,2.7,4.8S500.7,70.4,500.7,67z M496.7,66.9c0-0.8,0.6-1.3,1.2-1.3s1.2,0.5,1.2,1.3c0,0.8-0.6,1.3-1.2,1.3
	S496.7,67.7,496.7,66.9z M505.4,71.5h3.4v-8.4h-2.7v-1.2c1.5-0.2,2.4-0.5,3.2-0.9h1.4v10.6h3v1.6h-8.4V71.5z M516.3,67
	c0-4.1,1.7-6.2,4.4-6.2s4.4,2.2,4.4,6.2c0,4-1.7,6.3-4.4,6.3S516.3,71.1,516.3,67z M523.5,67c0-3.4-1.1-4.7-2.7-4.7
	s-2.7,1.3-2.7,4.7s1.1,4.8,2.7,4.8S523.5,70.4,523.5,67z M519.5,66.9c0-0.8,0.6-1.3,1.2-1.3s1.2,0.5,1.2,1.3c0,0.8-0.6,1.3-1.2,1.3
	S519.5,67.7,519.5,66.9z M528.2,71.5h3.4v-8.4h-2.7v-1.2c1.5-0.2,2.4-0.5,3.2-0.9h1.4v10.6h3v1.6h-8.4V71.5z M539.1,67
	c0-4.1,1.7-6.2,4.4-6.2s4.4,2.2,4.4,6.2c0,4-1.7,6.3-4.4,6.3S539.1,71.1,539.1,67z M546.3,67c0-3.4-1.1-4.7-2.7-4.7
	s-2.7,1.3-2.7,4.7s1.1,4.8,2.7,4.8S546.3,70.4,546.3,67z M542.3,66.9c0-0.8,0.6-1.3,1.2-1.3s1.2,0.5,1.2,1.3c0,0.8-0.6,1.3-1.2,1.3
	S542.3,67.7,542.3,66.9z M550.5,67c0-4.1,1.7-6.2,4.4-6.2s4.4,2.2,4.4,6.2c0,4-1.7,6.3-4.4,6.3S550.5,71.1,550.5,67z M557.7,67
	c0-3.4-1.1-4.7-2.7-4.7s-2.7,1.3-2.7,4.7s1.1,4.8,2.7,4.8S557.7,70.4,557.7,67z M553.7,66.9c0-0.8,0.6-1.3,1.2-1.3s1.2,0.5,1.2,1.3
	c0,0.8-0.6,1.3-1.2,1.3S553.7,67.7,553.7,66.9z M562.4,71.5h3.4v-8.4h-2.7v-1.2c1.5-0.2,2.4-0.5,3.2-0.9h1.4v10.6h3v1.6h-8.4V71.5z
	 M573.3,67c0-4.1,1.7-6.2,4.4-6.2s4.4,2.2,4.4,6.2c0,4-1.7,6.3-4.4,6.3S573.3,71.1,573.3,67z M580.5,67c0-3.4-1.1-4.7-2.7-4.7
	s-2.7,1.3-2.7,4.7s1.1,4.8,2.7,4.8S580.5,70.4,580.5,67z M576.5,66.9c0-0.8,0.6-1.3,1.2-1.3s1.2,0.5,1.2,1.3c0,0.8-0.6,1.3-1.2,1.3
	S576.5,67.7,576.5,66.9z M585.2,71.5h3.4v-8.4h-2.7v-1.2c1.5-0.2,2.4-0.5,3.2-0.9h1.4v10.6h3v1.6h-8.4V71.5z M596.1,67
	c0-4.1,1.7-6.2,4.4-6.2s4.4,2.2,4.4,6.2c0,4-1.7,6.3-4.4,6.3S596.1,71.1,596.1,67z M603.3,67c0-3.4-1.1-4.7-2.7-4.7
	s-2.7,1.3-2.7,4.7s1.1,4.8,2.7,4.8S603.3,70.4,603.3,67z M599.3,66.9c0-0.8,0.6-1.3,1.2-1.3s1.2,0.5,1.2,1.3c0,0.8-0.6,1.3-1.2,1.3
	S599.3,67.7,599.3,66.9z M608,71.5h3.4v-8.4h-2.7v-1.2c1.5-0.2,2.4-0.5,3.2-0.9h1.4v10.6h3v1.6H608V71.5z M618.9,67
	c0-4.1,1.7-6.2,4.4-6.2s4.4,2.2,4.4,6.2c0,4-1.7,6.3-4.4,6.3S618.9,71.1,618.9,67z M626.1,67c0-3.4-1.1-4.7-2.7-4.7
	s-2.7,1.3-2.7,4.7s1.1,4.8,2.7,4.8S626.1,70.4,626.1,67z M622.1,66.9c0-0.8,0.6-1.3,1.2-1.3s1.2,0.5,1.2,1.3c0,0.8-0.6,1.3-1.2,1.3
	S622.1,67.7,622.1,66.9z M630.8,71.5h3.4v-8.4h-2.7v-1.2c1.5-0.2,2.4-0.5,3.2-0.9h1.4v10.6h3v1.6h-8.4V71.5z M641.7,67
	c0-4.1,1.7-6.2,4.4-6.2s4.4,2.2,4.4,6.2c0,4-1.7,6.3-4.4,6.3S641.7,71.1,641.7,67z M648.9,67c0-3.4-1.1-4.7-2.7-4.7
	s-2.7,1.3-2.7,4.7s1.1,4.8,2.7,4.8S648.9,70.4,648.9,67z M644.9,66.9c0-0.8,0.6-1.3,1.2-1.3s1.2,0.5,1.2,1.3c0,0.8-0.6,1.3-1.2,1.3
	S644.9,67.7,644.9,66.9z M653.6,71.5h3.4v-8.4h-2.7v-1.2c1.5-0.2,2.4-0.5,3.2-0.9h1.4v10.6h3v1.6h-8.4V71.5z M664.5,67
	c0-4.1,1.7-6.2,4.4-6.2s4.4,2.2,4.4,6.2c0,4-1.7,6.3-4.4,6.3S664.5,71.1,664.5,67z M671.7,67c0-3.4-1.1-4.7-2.7-4.7
	s-2.7,1.3-2.7,4.7s1.1,4.8,2.7,4.8S671.7,70.4,671.7,67z M667.7,66.9c0-0.8,0.6-1.3,1.2-1.3s1.2,0.5,1.2,1.3c0,0.8-0.6,1.3-1.2,1.3
	S667.7,67.7,667.7,66.9z M675.9,67c0-4.1,1.7-6.2,4.4-6.2s4.4,2.2,4.4,6.2c0,4-1.7,6.3-4.4,6.3S675.9,71.1,675.9,67z M683.1,67
	c0-3.4-1.1-4.7-2.7-4.7s-2.7,1.3-2.7,4.7s1.1,4.8,2.7,4.8S683.1,70.4,683.1,67z M679.1,66.9c0-0.8,0.6-1.3,1.2-1.3s1.2,0.5,1.2,1.3
	c0,0.8-0.6,1.3-1.2,1.3S679.1,67.7,679.1,66.9z M687.8,71.5h3.4v-8.4h-2.7v-1.2c1.5-0.2,2.4-0.5,3.2-0.9h1.4v10.6h3v1.6h-8.4V71.5z
	 M698.7,67c0-4.1,1.7-6.2,4.4-6.2s4.4,2.2,4.4,6.2c0,4-1.7,6.3-4.4,6.3S698.7,71.1,698.7,67z M705.8,67c0-3.4-1.1-4.7-2.7-4.7
	s-2.7,1.3-2.7,4.7s1.1,4.8,2.7,4.8S705.8,70.4,705.8,67z M701.9,66.9c0-0.8,0.6-1.3,1.2-1.3s1.2,0.5,1.2,1.3c0,0.8-0.6,1.3-1.2,1.3
	S701.9,67.7,701.9,66.9z M710.6,71.5h3.4v-8.4h-2.7v-1.2c1.5-0.2,2.4-0.5,3.2-0.9h1.4v10.6h3v1.6h-8.4V71.5z M721.5,67
	c0-4.1,1.7-6.2,4.4-6.2s4.4,2.2,4.4,6.2c0,4-1.7,6.3-4.4,6.3S721.5,71.1,721.5,67z M728.6,67c0-3.4-1.1-4.7-2.7-4.7
	s-2.7,1.3-2.7,4.7s1.1,4.8,2.7,4.8S728.6,70.4,728.6,67z M724.7,66.9c0-0.8,0.6-1.3,1.2-1.3s1.2,0.5,1.2,1.3c0,0.8-0.6,1.3-1.2,1.3
	S724.7,67.7,724.7,66.9z M733.4,71.5h3.4v-8.4h-2.7v-1.2c1.5-0.2,2.4-0.5,3.2-0.9h1.4v10.6h3v1.6h-8.4V71.5z M3.8,90.5h3.4v-8.4H4.6
	v-1.2C6,80.7,6.9,80.4,7.7,80h1.4v10.6h3v1.6H3.8V90.5z M15.2,90.5h3.4v-8.4H16v-1.2c1.5-0.2,2.4-0.5,3.2-0.9h1.4v10.6h3v1.6h-8.4
	V90.5z M26.6,90.5h3.4v-8.4h-2.7v-1.2c1.5-0.2,2.4-0.5,3.2-0.9H32v10.6h3v1.6h-8.4V90.5z M37.5,86c0-4.1,1.7-6.2,4.4-6.2
	c2.7,0,4.4,2.2,4.4,6.2c0,4-1.7,6.3-4.4,6.3C39.3,92.3,37.5,90.1,37.5,86z M44.7,86c0-3.4-1.1-4.7-2.7-4.7s-2.7,1.3-2.7,4.7
	s1.1,4.8,2.7,4.8S44.7,89.4,44.7,86z M40.7,85.9c0-0.8,0.6-1.3,1.2-1.3s1.2,0.5,1.2,1.3c0,0.8-0.6,1.3-1.2,1.3S40.7,86.7,40.7,85.9z
	 M49.4,90.5h3.4v-8.4h-2.7v-1.2c1.5-0.2,2.4-0.5,3.2-0.9h1.4v10.6h3v1.6h-8.4V90.5z M60.8,90.5h3.4v-8.4h-2.7v-1.2
	c1.5-0.2,2.4-0.5,3.2-0.9h1.4v10.6h3v1.6h-8.4V90.5z M71.7,86c0-4.1,1.7-6.2,4.4-6.2c2.7,0,4.4,2.2,4.4,6.2c0,4-1.7,6.3-4.4,6.3
	C73.5,92.3,71.7,90.1,71.7,86z M78.9,86c0-3.4-1.1-4.7-2.7-4.7s-2.7,1.3-2.7,4.7s1.1,4.8,2.7,4.8S78.9,89.4,78.9,86z M74.9,85.9
	c0-0.8,0.6-1.3,1.2-1.3s1.2,0.5,1.2,1.3c0,0.8-0.6,1.3-1.2,1.3S74.9,86.7,74.9,85.9z M83.6,90.5h3.4v-8.4h-2.7v-1.2
	c1.5-0.2,2.4-0.5,3.2-0.9H89v10.6h3v1.6h-8.4V90.5z M94.5,86c0-4.1,1.7-6.2,4.4-6.2c2.7,0,4.4,2.2,4.4,6.2c0,4-1.7,6.3-4.4,6.3
	C96.2,92.3,94.5,90.1,94.5,86z M101.7,86c0-3.4-1.1-4.7-2.7-4.7s-2.7,1.3-2.7,4.7s1.1,4.8,2.7,4.8S101.7,89.4,101.7,86z M97.7,85.9
	c0-0.8,0.6-1.3,1.2-1.3s1.2,0.5,1.2,1.3c0,0.8-0.6,1.3-1.2,1.3S97.7,86.7,97.7,85.9z M106.4,90.5h3.4v-8.4h-2.7v-1.2
	c1.5-0.2,2.4-0.5,3.2-0.9h1.4v10.6h3v1.6h-8.4V90.5z M117.3,86c0-4.1,1.7-6.2,4.4-6.2c2.7,0,4.4,2.2,4.4,6.2c0,4-1.7,6.3-4.4,6.3
	C119,92.3,117.3,90.1,117.3,86z M124.5,86c0-3.4-1.1-4.7-2.7-4.7s-2.7,1.3-2.7,4.7s1.1,4.8,2.7,4.8S124.5,89.4,124.5,86z
	 M120.5,85.9c0-0.8,0.6-1.3,1.2-1.3s1.2,0.5,1.2,1.3c0,0.8-0.6,1.3-1.2,1.3S120.5,86.7,120.5,85.9z M129.2,90.5h3.4v-8.4H130v-1.2
	c1.5-0.2,2.4-0.5,3.2-0.9h1.4v10.6h3v1.6h-8.4V90.5z M140.1,86c0-4.1,1.7-6.2,4.4-6.2c2.7,0,4.4,2.2,4.4,6.2c0,4-1.7,6.3-4.4,6.3
	C141.8,92.3,140.1,90.1,140.1,86z M147.3,86c0-3.4-1.1-4.7-2.7-4.7s-2.7,1.3-2.7,4.7s1.1,4.8,2.7,4.8S147.3,89.4,147.3,86z
	 M143.3,85.9c0-0.8,0.6-1.3,1.2-1.3s1.2,0.5,1.2,1.3c0,0.8-0.6,1.3-1.2,1.3S143.3,86.7,143.3,85.9z M152,90.5h3.4v-8.4h-2.7v-1.2
	c1.5-0.2,2.4-0.5,3.2-0.9h1.4v10.6h3v1.6H152V90.5z M162.9,86c0-4.1,1.7-6.2,4.4-6.2c2.7,0,4.4,2.2,4.4,6.2c0,4-1.7,6.3-4.4,6.3
	C164.6,92.3,162.9,90.1,162.9,86z M170.1,86c0-3.4-1.1-4.7-2.7-4.7s-2.7,1.3-2.7,4.7s1.1,4.8,2.7,4.8S170.1,89.4,170.1,86z
	 M166.1,85.9c0-0.8,0.6-1.3,1.2-1.3s1.2,0.5,1.2,1.3c0,0.8-0.6,1.3-1.2,1.3S166.1,86.7,166.1,85.9z M174.8,90.5h3.4v-8.4h-2.7v-1.2
	c1.5-0.2,2.4-0.5,3.2-0.9h1.4v10.6h3v1.6h-8.4V90.5z M185.7,86c0-4.1,1.7-6.2,4.4-6.2c2.7,0,4.4,2.2,4.4,6.2c0,4-1.7,6.3-4.4,6.3
	C187.4,92.3,185.7,90.1,185.7,86z M192.9,86c0-3.4-1.1-4.7-2.7-4.7s-2.7,1.3-2.7,4.7s1.1,4.8,2.7,4.8S192.9,89.4,192.9,86z
	 M188.9,85.9c0-0.8,0.6-1.3,1.2-1.3s1.2,0.5,1.2,1.3c0,0.8-0.6,1.3-1.2,1.3S188.9,86.7,188.9,85.9z M197.1,86c0-4.1,1.7-6.2,4.4-6.2
	c2.7,0,4.4,2.2,4.4,6.2c0,4-1.7,6.3-4.4,6.3C198.8,92.3,197.1,90.1,197.1,86z M204.3,86c0-3.4-1.1-4.7-2.7-4.7s-2.7,1.3-2.7,4.7
	s1.1,4.8,2.7,4.8S204.3,89.4,204.3,86z M200.3,85.9c0-0.8,0.6-1.3,1.2-1.3s1.2,0.5,1.2,1.3c0,0.8-0.6,1.3-1.2,1.3
	S200.3,86.7,200.3,85.9z M208.5,86c0-4.1,1.7-6.2,4.4-6.2c2.7,0,4.4,2.2,4.4,6.2c0,4-1.7,6.3-4.4,6.3
	C210.2,92.3,208.5,90.1,208.5,86z M215.7,86c0-3.4-1.1-4.7-2.7-4.7s-2.7,1.3-2.7,4.7s1.1,4.8,2.7,4.8S215.7,89.4,215.7,86z
	 M211.7,85.9c0-0.8,0.6-1.3,1.2-1.3s1.2,0.5,1.2,1.3c0,0.8-0.6,1.3-1.2,1.3S211.7,86.7,211.7,85.9z M219.9,86c0-4.1,1.7-6.2,4.4-6.2
	c2.7,0,4.4,2.2,4.4,6.2c0,4-1.7,6.3-4.4,6.3C221.6,92.3,219.9,90.1,219.9,86z M227.1,86c0-3.4-1.1-4.7-2.7-4.7s-2.7,1.3-2.7,4.7
	s1.1,4.8,2.7,4.8S227.1,89.4,227.1,86z M223.1,85.9c0-0.8,0.6-1.3,1.2-1.3s1.2,0.5,1.2,1.3c0,0.8-0.6,1.3-1.2,1.3
	S223.1,86.7,223.1,85.9z M231.3,86c0-4.1,1.7-6.2,4.4-6.2c2.7,0,4.4,2.2,4.4,6.2c0,4-1.7,6.3-4.4,6.3C233,92.3,231.3,90.1,231.3,86z
	 M238.5,86c0-3.4-1.1-4.7-2.7-4.7s-2.7,1.3-2.7,4.7s1.1,4.8,2.7,4.8S238.5,89.4,238.5,86z M234.5,85.9c0-0.8,0.6-1.3,1.2-1.3
	s1.2,0.5,1.2,1.3c0,0.8-0.6,1.3-1.2,1.3S234.5,86.7,234.5,85.9z M243.2,90.5h3.4v-8.4H244v-1.2c1.5-0.2,2.4-0.5,3.2-0.9h1.4v10.6h3
	v1.6h-8.4V90.5z M254.1,86c0-4.1,1.7-6.2,4.4-6.2c2.7,0,4.4,2.2,4.4,6.2c0,4-1.7,6.3-4.4,6.3C255.8,92.3,254.1,90.1,254.1,86z
	 M261.3,86c0-3.4-1.1-4.7-2.7-4.7s-2.7,1.3-2.7,4.7s1.1,4.8,2.7,4.8S261.3,89.4,261.3,86z M257.3,85.9c0-0.8,0.6-1.3,1.2-1.3
	s1.2,0.5,1.2,1.3c0,0.8-0.6,1.3-1.2,1.3S257.3,86.7,257.3,85.9z M266,90.5h3.4v-8.4h-2.7v-1.2c1.5-0.2,2.4-0.5,3.2-0.9h1.4v10.6h3
	v1.6H266V90.5z M276.9,86c0-4.1,1.7-6.2,4.4-6.2c2.7,0,4.4,2.2,4.4,6.2c0,4-1.7,6.3-4.4,6.3C278.6,92.3,276.9,90.1,276.9,86z
	 M284.1,86c0-3.4-1.1-4.7-2.7-4.7s-2.7,1.3-2.7,4.7s1.1,4.8,2.7,4.8S284.1,89.4,284.1,86z M280.1,85.9c0-0.8,0.6-1.3,1.2-1.3
	s1.2,0.5,1.2,1.3c0,0.8-0.6,1.3-1.2,1.3S280.1,86.7,280.1,85.9z M288.8,90.5h3.4v-8.4h-2.7v-1.2c1.5-0.2,2.4-0.5,3.2-0.9h1.4v10.6h3
	v1.6h-8.4V90.5z M299.7,86c0-4.1,1.7-6.2,4.4-6.2c2.7,0,4.4,2.2,4.4,6.2c0,4-1.7,6.3-4.4,6.3C301.4,92.3,299.7,90.1,299.7,86z
	 M306.9,86c0-3.4-1.1-4.7-2.7-4.7s-2.7,1.3-2.7,4.7s1.1,4.8,2.7,4.8S306.9,89.4,306.9,86z M302.9,85.9c0-0.8,0.6-1.3,1.2-1.3
	s1.2,0.5,1.2,1.3c0,0.8-0.6,1.3-1.2,1.3S302.9,86.7,302.9,85.9z M311.6,90.5h3.4v-8.4h-2.7v-1.2c1.5-0.2,2.4-0.5,3.2-0.9h1.4v10.6h3
	v1.6h-8.4V90.5z M322.5,86c0-4.1,1.7-6.2,4.4-6.2c2.7,0,4.4,2.2,4.4,6.2c0,4-1.7,6.3-4.4,6.3C324.2,92.3,322.5,90.1,322.5,86z
	 M329.7,86c0-3.4-1.1-4.7-2.7-4.7s-2.7,1.3-2.7,4.7s1.1,4.8,2.7,4.8S329.7,89.4,329.7,86z M325.7,85.9c0-0.8,0.6-1.3,1.2-1.3
	s1.2,0.5,1.2,1.3c0,0.8-0.6,1.3-1.2,1.3S325.7,86.7,325.7,85.9z M333.9,86c0-4.1,1.7-6.2,4.4-6.2c2.7,0,4.4,2.2,4.4,6.2
	c0,4-1.7,6.3-4.4,6.3C335.6,92.3,333.9,90.1,333.9,86z M341.1,86c0-3.4-1.1-4.7-2.7-4.7s-2.7,1.3-2.7,4.7s1.1,4.8,2.7,4.8
	S341.1,89.4,341.1,86z M337.1,85.9c0-0.8,0.6-1.3,1.2-1.3s1.2,0.5,1.2,1.3c0,0.8-0.6,1.3-1.2,1.3S337.1,86.7,337.1,85.9z
	 M345.8,90.5h3.4v-8.4h-2.7v-1.2c1.5-0.2,2.4-0.5,3.2-0.9h1.4v10.6h3v1.6h-8.4V90.5z M357.2,90.5h3.4v-8.4H358v-1.2
	c1.5-0.2,2.4-0.5,3.2-0.9h1.4v10.6h3v1.6h-8.4V90.5z M368.6,90.5h3.4v-8.4h-2.7v-1.2c1.5-0.2,2.4-0.5,3.2-0.9h1.4v10.6h3v1.6h-8.4
	V90.5z M379.5,86c0-4.1,1.7-6.2,4.4-6.2s4.4,2.2,4.4,6.2c0,4-1.7,6.3-4.4,6.3S379.5,90.1,379.5,86z M386.7,86c0-3.4-1.1-4.7-2.7-4.7
	s-2.7,1.3-2.7,4.7s1.1,4.8,2.7,4.8S386.7,89.4,386.7,86z M382.7,85.9c0-0.8,0.6-1.3,1.2-1.3s1.2,0.5,1.2,1.3c0,0.8-0.6,1.3-1.2,1.3
	S382.7,86.7,382.7,85.9z M391.4,90.5h3.4v-8.4h-2.7v-1.2c1.5-0.2,2.4-0.5,3.2-0.9h1.4v10.6h3v1.6h-8.4V90.5z M402.3,86
	c0-4.1,1.7-6.2,4.4-6.2s4.4,2.2,4.4,6.2c0,4-1.7,6.3-4.4,6.3S402.3,90.1,402.3,86z M409.5,86c0-3.4-1.1-4.7-2.7-4.7
	s-2.7,1.3-2.7,4.7s1.1,4.8,2.7,4.8S409.5,89.4,409.5,86z M405.5,85.9c0-0.8,0.6-1.3,1.2-1.3s1.2,0.5,1.2,1.3c0,0.8-0.6,1.3-1.2,1.3
	S405.5,86.7,405.5,85.9z M413.7,86c0-4.1,1.7-6.2,4.4-6.2s4.4,2.2,4.4,6.2c0,4-1.7,6.3-4.4,6.3S413.7,90.1,413.7,86z M420.9,86
	c0-3.4-1.1-4.7-2.7-4.7s-2.7,1.3-2.7,4.7s1.1,4.8,2.7,4.8S420.9,89.4,420.9,86z M416.9,85.9c0-0.8,0.6-1.3,1.2-1.3s1.2,0.5,1.2,1.3
	c0,0.8-0.6,1.3-1.2,1.3S416.9,86.7,416.9,85.9z M425.6,90.5h3.4v-8.4h-2.7v-1.2c1.5-0.2,2.4-0.5,3.2-0.9h1.4v10.6h3v1.6h-8.4V90.5z
	 M437,90.5h3.4v-8.4h-2.7v-1.2c1.5-0.2,2.4-0.5,3.2-0.9h1.4v10.6h3v1.6H437V90.5z M448.4,90.5h3.4v-8.4h-2.7v-1.2
	c1.5-0.2,2.4-0.5,3.2-0.9h1.4v10.6h3v1.6h-8.4V90.5z M459.3,86c0-4.1,1.7-6.2,4.4-6.2s4.4,2.2,4.4,6.2c0,4-1.7,6.3-4.4,6.3
	S459.3,90.1,459.3,86z M466.5,86c0-3.4-1.1-4.7-2.7-4.7s-2.7,1.3-2.7,4.7s1.1,4.8,2.7,4.8S466.5,89.4,466.5,86z M462.5,85.9
	c0-0.8,0.6-1.3,1.2-1.3s1.2,0.5,1.2,1.3c0,0.8-0.6,1.3-1.2,1.3S462.5,86.7,462.5,85.9z M471.2,90.5h3.4v-8.4h-2.7v-1.2
	c1.5-0.2,2.4-0.5,3.2-0.9h1.4v10.6h3v1.6h-8.4V90.5z M482.1,86c0-4.1,1.7-6.2,4.4-6.2s4.4,2.2,4.4,6.2c0,4-1.7,6.3-4.4,6.3
	S482.1,90.1,482.1,86z M489.3,86c0-3.4-1.1-4.7-2.7-4.7s-2.7,1.3-2.7,4.7s1.1,4.8,2.7,4.8S489.3,89.4,489.3,86z M485.3,85.9
	c0-0.8,0.6-1.3,1.2-1.3s1.2,0.5,1.2,1.3c0,0.8-0.6,1.3-1.2,1.3S485.3,86.7,485.3,85.9z M494,90.5h3.4v-8.4h-2.7v-1.2
	c1.5-0.2,2.4-0.5,3.2-0.9h1.4v10.6h3v1.6H494V90.5z M504.9,86c0-4.1,1.7-6.2,4.4-6.2s4.4,2.2,4.4,6.2c0,4-1.7,6.3-4.4,6.3
	S504.9,90.1,504.9,86z M512.1,86c0-3.4-1.1-4.7-2.7-4.7s-2.7,1.3-2.7,4.7s1.1,4.8,2.7,4.8S512.1,89.4,512.1,86z M508.1,85.9
	c0-0.8,0.6-1.3,1.2-1.3s1.2,0.5,1.2,1.3c0,0.8-0.6,1.3-1.2,1.3S508.1,86.7,508.1,85.9z M516.8,90.5h3.4v-8.4h-2.7v-1.2
	c1.5-0.2,2.4-0.5,3.2-0.9h1.4v10.6h3v1.6h-8.4V90.5z M527.7,86c0-4.1,1.7-6.2,4.4-6.2s4.4,2.2,4.4,6.2c0,4-1.7,6.3-4.4,6.3
	S527.7,90.1,527.7,86z M534.9,86c0-3.4-1.1-4.7-2.7-4.7s-2.7,1.3-2.7,4.7s1.1,4.8,2.7,4.8S534.9,89.4,534.9,86z M530.9,85.9
	c0-0.8,0.6-1.3,1.2-1.3s1.2,0.5,1.2,1.3c0,0.8-0.6,1.3-1.2,1.3S530.9,86.7,530.9,85.9z M539.6,90.5h3.4v-8.4h-2.7v-1.2
	c1.5-0.2,2.4-0.5,3.2-0.9h1.4v10.6h3v1.6h-8.4V90.5z M551,90.5h3.4v-8.4h-2.7v-1.2c1.5-0.2,2.4-0.5,3.2-0.9h1.4v10.6h3v1.6H551V90.5
	z M562.4,90.5h3.4v-8.4h-2.7v-1.2c1.5-0.2,2.4-0.5,3.2-0.9h1.4v10.6h3v1.6h-8.4V90.5z M573.8,90.5h3.4v-8.4h-2.7v-1.2
	c1.5-0.2,2.4-0.5,3.2-0.9h1.4v10.6h3v1.6h-8.4V90.5z M584.7,86c0-4.1,1.7-6.2,4.4-6.2s4.4,2.2,4.4,6.2c0,4-1.7,6.3-4.4,6.3
	S584.7,90.1,584.7,86z M591.9,86c0-3.4-1.1-4.7-2.7-4.7s-2.7,1.3-2.7,4.7s1.1,4.8,2.7,4.8S591.9,89.4,591.9,86z M587.9,85.9
	c0-0.8,0.6-1.3,1.2-1.3s1.2,0.5,1.2,1.3c0,0.8-0.6,1.3-1.2,1.3S587.9,86.7,587.9,85.9z M596.6,90.5h3.4v-8.4h-2.7v-1.2
	c1.5-0.2,2.4-0.5,3.2-0.9h1.4v10.6h3v1.6h-8.4V90.5z M607.5,86c0-4.1,1.7-6.2,4.4-6.2s4.4,2.2,4.4,6.2c0,4-1.7,6.3-4.4,6.3
	S607.5,90.1,607.5,86z M614.7,86c0-3.4-1.1-4.7-2.7-4.7s-2.7,1.3-2.7,4.7s1.1,4.8,2.7,4.8S614.7,89.4,614.7,86z M610.7,85.9
	c0-0.8,0.6-1.3,1.2-1.3s1.2,0.5,1.2,1.3c0,0.8-0.6,1.3-1.2,1.3S610.7,86.7,610.7,85.9z M618.9,86c0-4.1,1.7-6.2,4.4-6.2
	s4.4,2.2,4.4,6.2c0,4-1.7,6.3-4.4,6.3S618.9,90.1,618.9,86z M626.1,86c0-3.4-1.1-4.7-2.7-4.7s-2.7,1.3-2.7,4.7s1.1,4.8,2.7,4.8
	S626.1,89.4,626.1,86z M622.1,85.9c0-0.8,0.6-1.3,1.2-1.3s1.2,0.5,1.2,1.3c0,0.8-0.6,1.3-1.2,1.3S622.1,86.7,622.1,85.9z
	 M630.8,90.5h3.4v-8.4h-2.7v-1.2c1.5-0.2,2.4-0.5,3.2-0.9h1.4v10.6h3v1.6h-8.4V90.5z M641.7,86c0-4.1,1.7-6.2,4.4-6.2
	s4.4,2.2,4.4,6.2c0,4-1.7,6.3-4.4,6.3S641.7,90.1,641.7,86z M648.9,86c0-3.4-1.1-4.7-2.7-4.7s-2.7,1.3-2.7,4.7s1.1,4.8,2.7,4.8
	S648.9,89.4,648.9,86z M644.9,85.9c0-0.8,0.6-1.3,1.2-1.3s1.2,0.5,1.2,1.3c0,0.8-0.6,1.3-1.2,1.3S644.9,86.7,644.9,85.9z
	 M653.6,90.5h3.4v-8.4h-2.7v-1.2c1.5-0.2,2.4-0.5,3.2-0.9h1.4v10.6h3v1.6h-8.4V90.5z M664.5,86c0-4.1,1.7-6.2,4.4-6.2
	s4.4,2.2,4.4,6.2c0,4-1.7,6.3-4.4,6.3S664.5,90.1,664.5,86z M671.7,86c0-3.4-1.1-4.7-2.7-4.7s-2.7,1.3-2.7,4.7s1.1,4.8,2.7,4.8
	S671.7,89.4,671.7,86z M667.7,85.9c0-0.8,0.6-1.3,1.2-1.3s1.2,0.5,1.2,1.3c0,0.8-0.6,1.3-1.2,1.3S667.7,86.7,667.7,85.9z
	 M676.4,90.5h3.4v-8.4h-2.7v-1.2c1.5-0.2,2.4-0.5,3.2-0.9h1.4v10.6h3v1.6h-8.4V90.5z M687.3,86c0-4.1,1.7-6.2,4.4-6.2
	s4.4,2.2,4.4,6.2c0,4-1.7,6.3-4.4,6.3S687.3,90.1,687.3,86z M694.5,86c0-3.4-1.1-4.7-2.7-4.7s-2.7,1.3-2.7,4.7s1.1,4.8,2.7,4.8
	S694.5,89.4,694.5,86z M690.5,85.9c0-0.8,0.6-1.3,1.2-1.3s1.2,0.5,1.2,1.3c0,0.8-0.6,1.3-1.2,1.3S690.5,86.7,690.5,85.9z
	 M699.2,90.5h3.4v-8.4h-2.7v-1.2c1.5-0.2,2.4-0.5,3.2-0.9h1.4v10.6h3v1.6h-8.4V90.5z M710.1,86c0-4.1,1.7-6.2,4.4-6.2
	s4.4,2.2,4.4,6.2c0,4-1.7,6.3-4.4,6.3S710.1,90.1,710.1,86z M717.2,86c0-3.4-1.1-4.7-2.7-4.7s-2.7,1.3-2.7,4.7s1.1,4.8,2.7,4.8
	S717.2,89.4,717.2,86z M713.3,85.9c0-0.8,0.6-1.3,1.2-1.3s1.2,0.5,1.2,1.3c0,0.8-0.6,1.3-1.2,1.3S713.3,86.7,713.3,85.9z M722,90.5
	h3.4v-8.4h-2.7v-1.2c1.5-0.2,2.4-0.5,3.2-0.9h1.4v10.6h3v1.6H722V90.5z M733.4,90.5h3.4v-8.4h-2.7v-1.2c1.5-0.2,2.4-0.5,3.2-0.9h1.4
	v10.6h3v1.6h-8.4V90.5z M3.3,105c0-4.1,1.7-6.2,4.4-6.2c2.7,0,4.4,2.2,4.4,6.2c0,4-1.7,6.3-4.4,6.3C5.1,111.3,3.3,109.1,3.3,105z
	 M10.5,105c0-3.4-1.1-4.7-2.7-4.7s-2.7,1.3-2.7,4.7s1.1,4.8,2.7,4.8S10.5,108.4,10.5,105z M6.5,104.9c0-0.8,0.6-1.3,1.2-1.3
	s1.2,0.5,1.2,1.3c0,0.8-0.6,1.3-1.2,1.3S6.5,105.7,6.5,104.9z M14.7,105c0-4.1,1.7-6.2,4.4-6.2c2.7,0,4.4,2.2,4.4,6.2
	c0,4-1.7,6.3-4.4,6.3C16.5,111.3,14.7,109.1,14.7,105z M21.9,105c0-3.4-1.1-4.7-2.7-4.7s-2.7,1.3-2.7,4.7s1.1,4.8,2.7,4.8
	S21.9,108.4,21.9,105z M17.9,104.9c0-0.8,0.6-1.3,1.2-1.3s1.2,0.5,1.2,1.3c0,0.8-0.6,1.3-1.2,1.3S17.9,105.7,17.9,104.9z
	 M26.6,109.5h3.4v-8.4h-2.7v-1.2c1.5-0.2,2.4-0.5,3.2-0.9H32v10.6h3v1.6h-8.4V109.5z M38,109.5h3.4v-8.4h-2.7v-1.2
	c1.5-0.2,2.4-0.5,3.2-0.9h1.4v10.6h3v1.6H38V109.5z M48.9,105c0-4.1,1.7-6.2,4.4-6.2c2.7,0,4.4,2.2,4.4,6.2c0,4-1.7,6.3-4.4,6.3
	C50.7,111.3,48.9,109.1,48.9,105z M56.1,105c0-3.4-1.1-4.7-2.7-4.7s-2.7,1.3-2.7,4.7s1.1,4.8,2.7,4.8S56.1,108.4,56.1,105z
	 M52.1,104.9c0-0.8,0.6-1.3,1.2-1.3s1.2,0.5,1.2,1.3c0,0.8-0.6,1.3-1.2,1.3S52.1,105.7,52.1,104.9z M60.3,105c0-4.1,1.7-6.2,4.4-6.2
	c2.7,0,4.4,2.2,4.4,6.2c0,4-1.7,6.3-4.4,6.3C62.1,111.3,60.3,109.1,60.3,105z M67.5,105c0-3.4-1.1-4.7-2.7-4.7s-2.7,1.3-2.7,4.7
	s1.1,4.8,2.7,4.8S67.5,108.4,67.5,105z M63.5,104.9c0-0.8,0.6-1.3,1.2-1.3s1.2,0.5,1.2,1.3c0,0.8-0.6,1.3-1.2,1.3
	S63.5,105.7,63.5,104.9z M72.2,109.5h3.4v-8.4H73v-1.2c1.5-0.2,2.4-0.5,3.2-0.9h1.4v10.6h3v1.6h-8.4V109.5z M83.6,109.5h3.4v-8.4
	h-2.7v-1.2c1.5-0.2,2.4-0.5,3.2-0.9H89v10.6h3v1.6h-8.4V109.5z M94.5,105c0-4.1,1.7-6.2,4.4-6.2c2.7,0,4.4,2.2,4.4,6.2
	c0,4-1.7,6.3-4.4,6.3C96.2,111.3,94.5,109.1,94.5,105z M101.7,105c0-3.4-1.1-4.7-2.7-4.7s-2.7,1.3-2.7,4.7s1.1,4.8,2.7,4.8
	S101.7,108.4,101.7,105z M97.7,104.9c0-0.8,0.6-1.3,1.2-1.3s1.2,0.5,1.2,1.3c0,0.8-0.6,1.3-1.2,1.3S97.7,105.7,97.7,104.9z
	 M106.4,109.5h3.4v-8.4h-2.7v-1.2c1.5-0.2,2.4-0.5,3.2-0.9h1.4v10.6h3v1.6h-8.4V109.5z M117.8,109.5h3.4v-8.4h-2.7v-1.2
	c1.5-0.2,2.4-0.5,3.2-0.9h1.4v10.6h3v1.6h-8.4V109.5z M129.2,109.5h3.4v-8.4H130v-1.2c1.5-0.2,2.4-0.5,3.2-0.9h1.4v10.6h3v1.6h-8.4
	V109.5z M140.6,109.5h3.4v-8.4h-2.7v-1.2c1.5-0.2,2.4-0.5,3.2-0.9h1.4v10.6h3v1.6h-8.4V109.5z M152,109.5h3.4v-8.4h-2.7v-1.2
	c1.5-0.2,2.4-0.5,3.2-0.9h1.4v10.6h3v1.6H152V109.5z M162.9,105c0-4.1,1.7-6.2,4.4-6.2c2.7,0,4.4,2.2,4.4,6.2c0,4-1.7,6.3-4.4,6.3
	C164.6,111.3,162.9,109.1,162.9,105z M170.1,105c0-3.4-1.1-4.7-2.7-4.7s-2.7,1.3-2.7,4.7s1.1,4.8,2.7,4.8S170.1,108.4,170.1,105z
	 M166.1,104.9c0-0.8,0.6-1.3,1.2-1.3s1.2,0.5,1.2,1.3c0,0.8-0.6,1.3-1.2,1.3S166.1,105.7,166.1,104.9z M174.8,109.5h3.4v-8.4h-2.7
	v-1.2c1.5-0.2,2.4-0.5,3.2-0.9h1.4v10.6h3v1.6h-8.4V109.5z M185.7,105c0-4.1,1.7-6.2,4.4-6.2c2.7,0,4.4,2.2,4.4,6.2
	c0,4-1.7,6.3-4.4,6.3C187.4,111.3,185.7,109.1,185.7,105z M192.9,105c0-3.4-1.1-4.7-2.7-4.7s-2.7,1.3-2.7,4.7s1.1,4.8,2.7,4.8
	S192.9,108.4,192.9,105z M188.9,104.9c0-0.8,0.6-1.3,1.2-1.3s1.2,0.5,1.2,1.3c0,0.8-0.6,1.3-1.2,1.3S188.9,105.7,188.9,104.9z
	 M197.6,109.5h3.4v-8.4h-2.7v-1.2c1.5-0.2,2.4-0.5,3.2-0.9h1.4v10.6h3v1.6h-8.4V109.5z M208.5,105c0-4.1,1.7-6.2,4.4-6.2
	c2.7,0,4.4,2.2,4.4,6.2c0,4-1.7,6.3-4.4,6.3C210.2,111.3,208.5,109.1,208.5,105z M215.7,105c0-3.4-1.1-4.7-2.7-4.7s-2.7,1.3-2.7,4.7
	s1.1,4.8,2.7,4.8S215.7,108.4,215.7,105z M211.7,104.9c0-0.8,0.6-1.3,1.2-1.3s1.2,0.5,1.2,1.3c0,0.8-0.6,1.3-1.2,1.3
	S211.7,105.7,211.7,104.9z M219.9,105c0-4.1,1.7-6.2,4.4-6.2c2.7,0,4.4,2.2,4.4,6.2c0,4-1.7,6.3-4.4,6.3
	C221.6,111.3,219.9,109.1,219.9,105z M227.1,105c0-3.4-1.1-4.7-2.7-4.7s-2.7,1.3-2.7,4.7s1.1,4.8,2.7,4.8S227.1,108.4,227.1,105z
	 M223.1,104.9c0-0.8,0.6-1.3,1.2-1.3s1.2,0.5,1.2,1.3c0,0.8-0.6,1.3-1.2,1.3S223.1,105.7,223.1,104.9z M231.8,109.5h3.4v-8.4h-2.7
	v-1.2c1.5-0.2,2.4-0.5,3.2-0.9h1.4v10.6h3v1.6h-8.4V109.5z M243.2,109.5h3.4v-8.4H244v-1.2c1.5-0.2,2.4-0.5,3.2-0.9h1.4v10.6h3v1.6
	h-8.4V109.5z M254.1,105c0-4.1,1.7-6.2,4.4-6.2c2.7,0,4.4,2.2,4.4,6.2c0,4-1.7,6.3-4.4,6.3C255.8,111.3,254.1,109.1,254.1,105z
	 M261.3,105c0-3.4-1.1-4.7-2.7-4.7s-2.7,1.3-2.7,4.7s1.1,4.8,2.7,4.8S261.3,108.4,261.3,105z M257.3,104.9c0-0.8,0.6-1.3,1.2-1.3
	s1.2,0.5,1.2,1.3c0,0.8-0.6,1.3-1.2,1.3S257.3,105.7,257.3,104.9z M266,109.5h3.4v-8.4h-2.7v-1.2c1.5-0.2,2.4-0.5,3.2-0.9h1.4v10.6
	h3v1.6H266V109.5z M276.9,105c0-4.1,1.7-6.2,4.4-6.2c2.7,0,4.4,2.2,4.4,6.2c0,4-1.7,6.3-4.4,6.3C278.6,111.3,276.9,109.1,276.9,105z
	 M284.1,105c0-3.4-1.1-4.7-2.7-4.7s-2.7,1.3-2.7,4.7s1.1,4.8,2.7,4.8S284.1,108.4,284.1,105z M280.1,104.9c0-0.8,0.6-1.3,1.2-1.3
	s1.2,0.5,1.2,1.3c0,0.8-0.6,1.3-1.2,1.3S280.1,105.7,280.1,104.9z M288.3,105c0-4.1,1.7-6.2,4.4-6.2c2.7,0,4.4,2.2,4.4,6.2
	c0,4-1.7,6.3-4.4,6.3C290,111.3,288.3,109.1,288.3,105z M295.5,105c0-3.4-1.1-4.7-2.7-4.7s-2.7,1.3-2.7,4.7s1.1,4.8,2.7,4.8
	S295.5,108.4,295.5,105z M291.5,104.9c0-0.8,0.6-1.3,1.2-1.3s1.2,0.5,1.2,1.3c0,0.8-0.6,1.3-1.2,1.3S291.5,105.7,291.5,104.9z
	 M300.2,109.5h3.4v-8.4H301v-1.2c1.5-0.2,2.4-0.5,3.2-0.9h1.4v10.6h3v1.6h-8.4V109.5z M311.1,105c0-4.1,1.7-6.2,4.4-6.2
	c2.7,0,4.4,2.2,4.4,6.2c0,4-1.7,6.3-4.4,6.3C312.8,111.3,311.1,109.1,311.1,105z M318.3,105c0-3.4-1.1-4.7-2.7-4.7s-2.7,1.3-2.7,4.7
	s1.1,4.8,2.7,4.8S318.3,108.4,318.3,105z M314.3,104.9c0-0.8,0.6-1.3,1.2-1.3s1.2,0.5,1.2,1.3c0,0.8-0.6,1.3-1.2,1.3
	S314.3,105.7,314.3,104.9z M323,109.5h3.4v-8.4h-2.7v-1.2c1.5-0.2,2.4-0.5,3.2-0.9h1.4v10.6h3v1.6H323V109.5z M333.9,105
	c0-4.1,1.7-6.2,4.4-6.2c2.7,0,4.4,2.2,4.4,6.2c0,4-1.7,6.3-4.4,6.3C335.6,111.3,333.9,109.1,333.9,105z M341.1,105
	c0-3.4-1.1-4.7-2.7-4.7s-2.7,1.3-2.7,4.7s1.1,4.8,2.7,4.8S341.1,108.4,341.1,105z M337.1,104.9c0-0.8,0.6-1.3,1.2-1.3
	s1.2,0.5,1.2,1.3c0,0.8-0.6,1.3-1.2,1.3S337.1,105.7,337.1,104.9z M345.8,109.5h3.4v-8.4h-2.7v-1.2c1.5-0.2,2.4-0.5,3.2-0.9h1.4
	v10.6h3v1.6h-8.4V109.5z M356.7,105c0-4.1,1.7-6.2,4.4-6.2c2.7,0,4.4,2.2,4.4,6.2c0,4-1.7,6.3-4.4,6.3
	C358.4,111.3,356.7,109.1,356.7,105z M363.9,105c0-3.4-1.1-4.7-2.7-4.7s-2.7,1.3-2.7,4.7s1.1,4.8,2.7,4.8S363.9,108.4,363.9,105z
	 M359.9,104.9c0-0.8,0.6-1.3,1.2-1.3s1.2,0.5,1.2,1.3c0,0.8-0.6,1.3-1.2,1.3S359.9,105.7,359.9,104.9z M368.6,109.5h3.4v-8.4h-2.7
	v-1.2c1.5-0.2,2.4-0.5,3.2-0.9h1.4v10.6h3v1.6h-8.4V109.5z M379.5,105c0-4.1,1.7-6.2,4.4-6.2s4.4,2.2,4.4,6.2c0,4-1.7,6.3-4.4,6.3
	S379.5,109.1,379.5,105z M386.7,105c0-3.4-1.1-4.7-2.7-4.7s-2.7,1.3-2.7,4.7s1.1,4.8,2.7,4.8S386.7,108.4,386.7,105z M382.7,104.9
	c0-0.8,0.6-1.3,1.2-1.3s1.2,0.5,1.2,1.3c0,0.8-0.6,1.3-1.2,1.3S382.7,105.7,382.7,104.9z M391.4,109.5h3.4v-8.4h-2.7v-1.2
	c1.5-0.2,2.4-0.5,3.2-0.9h1.4v10.6h3v1.6h-8.4V109.5z M402.8,109.5h3.4v-8.4h-2.7v-1.2c1.5-0.2,2.4-0.5,3.2-0.9h1.4v10.6h3v1.6h-8.4
	V109.5z M413.7,105c0-4.1,1.7-6.2,4.4-6.2s4.4,2.2,4.4,6.2c0,4-1.7,6.3-4.4,6.3S413.7,109.1,413.7,105z M420.9,105
	c0-3.4-1.1-4.7-2.7-4.7s-2.7,1.3-2.7,4.7s1.1,4.8,2.7,4.8S420.9,108.4,420.9,105z M416.9,104.9c0-0.8,0.6-1.3,1.2-1.3
	s1.2,0.5,1.2,1.3c0,0.8-0.6,1.3-1.2,1.3S416.9,105.7,416.9,104.9z M425.6,109.5h3.4v-8.4h-2.7v-1.2c1.5-0.2,2.4-0.5,3.2-0.9h1.4
	v10.6h3v1.6h-8.4V109.5z M436.5,105c0-4.1,1.7-6.2,4.4-6.2s4.4,2.2,4.4,6.2c0,4-1.7,6.3-4.4,6.3S436.5,109.1,436.5,105z M443.7,105
	c0-3.4-1.1-4.7-2.7-4.7s-2.7,1.3-2.7,4.7s1.1,4.8,2.7,4.8S443.7,108.4,443.7,105z M439.7,104.9c0-0.8,0.6-1.3,1.2-1.3
	s1.2,0.5,1.2,1.3c0,0.8-0.6,1.3-1.2,1.3S439.7,105.7,439.7,104.9z M448.4,109.5h3.4v-8.4h-2.7v-1.2c1.5-0.2,2.4-0.5,3.2-0.9h1.4
	v10.6h3v1.6h-8.4V109.5z M459.8,109.5h3.4v-8.4h-2.7v-1.2c1.5-0.2,2.4-0.5,3.2-0.9h1.4v10.6h3v1.6h-8.4V109.5z M471.2,109.5h3.4
	v-8.4h-2.7v-1.2c1.5-0.2,2.4-0.5,3.2-0.9h1.4v10.6h3v1.6h-8.4V109.5z M482.6,109.5h3.4v-8.4h-2.7v-1.2c1.5-0.2,2.4-0.5,3.2-0.9h1.4
	v10.6h3v1.6h-8.4V109.5z M493.5,105c0-4.1,1.7-6.2,4.4-6.2s4.4,2.2,4.4,6.2c0,4-1.7,6.3-4.4,6.3S493.5,109.1,493.5,105z M500.7,105
	c0-3.4-1.1-4.7-2.7-4.7s-2.7,1.3-2.7,4.7s1.1,4.8,2.7,4.8S500.7,108.4,500.7,105z M496.7,104.9c0-0.8,0.6-1.3,1.2-1.3
	s1.2,0.5,1.2,1.3c0,0.8-0.6,1.3-1.2,1.3S496.7,105.7,496.7,104.9z M505.4,109.5h3.4v-8.4h-2.7v-1.2c1.5-0.2,2.4-0.5,3.2-0.9h1.4
	v10.6h3v1.6h-8.4V109.5z M516.3,105c0-4.1,1.7-6.2,4.4-6.2s4.4,2.2,4.4,6.2c0,4-1.7,6.3-4.4,6.3S516.3,109.1,516.3,105z M523.5,105
	c0-3.4-1.1-4.7-2.7-4.7s-2.7,1.3-2.7,4.7s1.1,4.8,2.7,4.8S523.5,108.4,523.5,105z M519.5,104.9c0-0.8,0.6-1.3,1.2-1.3
	s1.2,0.5,1.2,1.3c0,0.8-0.6,1.3-1.2,1.3S519.5,105.7,519.5,104.9z M528.2,109.5h3.4v-8.4h-2.7v-1.2c1.5-0.2,2.4-0.5,3.2-0.9h1.4
	v10.6h3v1.6h-8.4V109.5z M539.1,105c0-4.1,1.7-6.2,4.4-6.2s4.4,2.2,4.4,6.2c0,4-1.7,6.3-4.4,6.3S539.1,109.1,539.1,105z M546.3,105
	c0-3.4-1.1-4.7-2.7-4.7s-2.7,1.3-2.7,4.7s1.1,4.8,2.7,4.8S546.3,108.4,546.3,105z M542.3,104.9c0-0.8,0.6-1.3,1.2-1.3
	s1.2,0.5,1.2,1.3c0,0.8-0.6,1.3-1.2,1.3S542.3,105.7,542.3,104.9z M550.5,105c0-4.1,1.7-6.2,4.4-6.2s4.4,2.2,4.4,6.2
	c0,4-1.7,6.3-4.4,6.3S550.5,109.1,550.5,105z M557.7,105c0-3.4-1.1-4.7-2.7-4.7s-2.7,1.3-2.7,4.7s1.1,4.8,2.7,4.8
	S557.7,108.4,557.7,105z M553.7,104.9c0-0.8,0.6-1.3,1.2-1.3s1.2,0.5,1.2,1.3c0,0.8-0.6,1.3-1.2,1.3S553.7,105.7,553.7,104.9z
	 M562.4,109.5h3.4v-8.4h-2.7v-1.2c1.5-0.2,2.4-0.5,3.2-0.9h1.4v10.6h3v1.6h-8.4V109.5z M573.3,105c0-4.1,1.7-6.2,4.4-6.2
	s4.4,2.2,4.4,6.2c0,4-1.7,6.3-4.4,6.3S573.3,109.1,573.3,105z M580.5,105c0-3.4-1.1-4.7-2.7-4.7s-2.7,1.3-2.7,4.7s1.1,4.8,2.7,4.8
	S580.5,108.4,580.5,105z M576.5,104.9c0-0.8,0.6-1.3,1.2-1.3s1.2,0.5,1.2,1.3c0,0.8-0.6,1.3-1.2,1.3S576.5,105.7,576.5,104.9z
	 M584.7,105c0-4.1,1.7-6.2,4.4-6.2s4.4,2.2,4.4,6.2c0,4-1.7,6.3-4.4,6.3S584.7,109.1,584.7,105z M591.9,105c0-3.4-1.1-4.7-2.7-4.7
	s-2.7,1.3-2.7,4.7s1.1,4.8,2.7,4.8S591.9,108.4,591.9,105z M587.9,104.9c0-0.8,0.6-1.3,1.2-1.3s1.2,0.5,1.2,1.3
	c0,0.8-0.6,1.3-1.2,1.3S587.9,105.7,587.9,104.9z M596.6,109.5h3.4v-8.4h-2.7v-1.2c1.5-0.2,2.4-0.5,3.2-0.9h1.4v10.6h3v1.6h-8.4
	V109.5z M608,109.5h3.4v-8.4h-2.7v-1.2c1.5-0.2,2.4-0.5,3.2-0.9h1.4v10.6h3v1.6H608V109.5z M618.9,105c0-4.1,1.7-6.2,4.4-6.2
	s4.4,2.2,4.4,6.2c0,4-1.7,6.3-4.4,6.3S618.9,109.1,618.9,105z M626.1,105c0-3.4-1.1-4.7-2.7-4.7s-2.7,1.3-2.7,4.7s1.1,4.8,2.7,4.8
	S626.1,108.4,626.1,105z M622.1,104.9c0-0.8,0.6-1.3,1.2-1.3s1.2,0.5,1.2,1.3c0,0.8-0.6,1.3-1.2,1.3S622.1,105.7,622.1,104.9z
	 M630.8,109.5h3.4v-8.4h-2.7v-1.2c1.5-0.2,2.4-0.5,3.2-0.9h1.4v10.6h3v1.6h-8.4V109.5z M642.2,109.5h3.4v-8.4h-2.7v-1.2
	c1.5-0.2,2.4-0.5,3.2-0.9h1.4v10.6h3v1.6h-8.4V109.5z M653.1,105c0-4.1,1.7-6.2,4.4-6.2s4.4,2.2,4.4,6.2c0,4-1.7,6.3-4.4,6.3
	S653.1,109.1,653.1,105z M660.3,105c0-3.4-1.1-4.7-2.7-4.7s-2.7,1.3-2.7,4.7s1.1,4.8,2.7,4.8S660.3,108.4,660.3,105z M656.3,104.9
	c0-0.8,0.6-1.3,1.2-1.3s1.2,0.5,1.2,1.3c0,0.8-0.6,1.3-1.2,1.3S656.3,105.7,656.3,104.9z M665,109.5h3.4v-8.4h-2.7v-1.2
	c1.5-0.2,2.4-0.5,3.2-0.9h1.4v10.6h3v1.6H665V109.5z M675.9,105c0-4.1,1.7-6.2,4.4-6.2s4.4,2.2,4.4,6.2c0,4-1.7,6.3-4.4,6.3
	S675.9,109.1,675.9,105z M683.1,105c0-3.4-1.1-4.7-2.7-4.7s-2.7,1.3-2.7,4.7s1.1,4.8,2.7,4.8S683.1,108.4,683.1,105z M679.1,104.9
	c0-0.8,0.6-1.3,1.2-1.3s1.2,0.5,1.2,1.3c0,0.8-0.6,1.3-1.2,1.3S679.1,105.7,679.1,104.9z M687.8,109.5h3.4v-8.4h-2.7v-1.2
	c1.5-0.2,2.4-0.5,3.2-0.9h1.4v10.6h3v1.6h-8.4V109.5z M698.7,105c0-4.1,1.7-6.2,4.4-6.2s4.4,2.2,4.4,6.2c0,4-1.7,6.3-4.4,6.3
	S698.7,109.1,698.7,105z M705.8,105c0-3.4-1.1-4.7-2.7-4.7s-2.7,1.3-2.7,4.7s1.1,4.8,2.7,4.8S705.8,108.4,705.8,105z M701.9,104.9
	c0-0.8,0.6-1.3,1.2-1.3s1.2,0.5,1.2,1.3c0,0.8-0.6,1.3-1.2,1.3S701.9,105.7,701.9,104.9z M710.6,109.5h3.4v-8.4h-2.7v-1.2
	c1.5-0.2,2.4-0.5,3.2-0.9h1.4v10.6h3v1.6h-8.4V109.5z M721.5,105c0-4.1,1.7-6.2,4.4-6.2s4.4,2.2,4.4,6.2c0,4-1.7,6.3-4.4,6.3
	S721.5,109.1,721.5,105z M728.6,105c0-3.4-1.1-4.7-2.7-4.7s-2.7,1.3-2.7,4.7s1.1,4.8,2.7,4.8S728.6,108.4,728.6,105z M724.7,104.9
	c0-0.8,0.6-1.3,1.2-1.3s1.2,0.5,1.2,1.3c0,0.8-0.6,1.3-1.2,1.3S724.7,105.7,724.7,104.9z M733.4,109.5h3.4v-8.4h-2.7v-1.2
	c1.5-0.2,2.4-0.5,3.2-0.9h1.4v10.6h3v1.6h-8.4V109.5z M3.8,128.5h3.4v-8.4H4.6v-1.2c1.5-0.2,2.4-0.5,3.2-0.9h1.4v10.6h3v1.6H3.8
	V128.5z M14.7,124c0-4.1,1.7-6.2,4.4-6.2c2.7,0,4.4,2.2,4.4,6.2c0,4-1.7,6.3-4.4,6.3C16.5,130.3,14.7,128.1,14.7,124z M21.9,124
	c0-3.4-1.1-4.7-2.7-4.7s-2.7,1.3-2.7,4.7s1.1,4.8,2.7,4.8S21.9,127.4,21.9,124z M17.9,123.9c0-0.8,0.6-1.3,1.2-1.3s1.2,0.5,1.2,1.3
	c0,0.8-0.6,1.3-1.2,1.3S17.9,124.7,17.9,123.9z M26.1,124c0-4.1,1.7-6.2,4.4-6.2c2.7,0,4.4,2.2,4.4,6.2c0,4-1.7,6.3-4.4,6.3
	C27.9,130.3,26.1,128.1,26.1,124z M33.3,124c0-3.4-1.1-4.7-2.7-4.7s-2.7,1.3-2.7,4.7s1.1,4.8,2.7,4.8S33.3,127.4,33.3,124z
	 M29.3,123.9c0-0.8,0.6-1.3,1.2-1.3s1.2,0.5,1.2,1.3c0,0.8-0.6,1.3-1.2,1.3S29.3,124.7,29.3,123.9z M38,128.5h3.4v-8.4h-2.7v-1.2
	c1.5-0.2,2.4-0.5,3.2-0.9h1.4v10.6h3v1.6H38V128.5z M48.9,124c0-4.1,1.7-6.2,4.4-6.2c2.7,0,4.4,2.2,4.4,6.2c0,4-1.7,6.3-4.4,6.3
	C50.7,130.3,48.9,128.1,48.9,124z M56.1,124c0-3.4-1.1-4.7-2.7-4.7s-2.7,1.3-2.7,4.7s1.1,4.8,2.7,4.8S56.1,127.4,56.1,124z
	 M52.1,123.9c0-0.8,0.6-1.3,1.2-1.3s1.2,0.5,1.2,1.3c0,0.8-0.6,1.3-1.2,1.3S52.1,124.7,52.1,123.9z M60.8,128.5h3.4v-8.4h-2.7v-1.2
	c1.5-0.2,2.4-0.5,3.2-0.9h1.4v10.6h3v1.6h-8.4V128.5z M71.7,124c0-4.1,1.7-6.2,4.4-6.2c2.7,0,4.4,2.2,4.4,6.2c0,4-1.7,6.3-4.4,6.3
	C73.5,130.3,71.7,128.1,71.7,124z M78.9,124c0-3.4-1.1-4.7-2.7-4.7s-2.7,1.3-2.7,4.7s1.1,4.8,2.7,4.8S78.9,127.4,78.9,124z
	 M74.9,123.9c0-0.8,0.6-1.3,1.2-1.3s1.2,0.5,1.2,1.3c0,0.8-0.6,1.3-1.2,1.3S74.9,124.7,74.9,123.9z M83.6,128.5h3.4v-8.4h-2.7v-1.2
	c1.5-0.2,2.4-0.5,3.2-0.9H89v10.6h3v1.6h-8.4V128.5z M94.5,124c0-4.1,1.7-6.2,4.4-6.2c2.7,0,4.4,2.2,4.4,6.2c0,4-1.7,6.3-4.4,6.3
	C96.2,130.3,94.5,128.1,94.5,124z M101.7,124c0-3.4-1.1-4.7-2.7-4.7s-2.7,1.3-2.7,4.7s1.1,4.8,2.7,4.8S101.7,127.4,101.7,124z
	 M97.7,123.9c0-0.8,0.6-1.3,1.2-1.3s1.2,0.5,1.2,1.3c0,0.8-0.6,1.3-1.2,1.3S97.7,124.7,97.7,123.9z M106.4,128.5h3.4v-8.4h-2.7v-1.2
	c1.5-0.2,2.4-0.5,3.2-0.9h1.4v10.6h3v1.6h-8.4V128.5z M117.3,124c0-4.1,1.7-6.2,4.4-6.2c2.7,0,4.4,2.2,4.4,6.2c0,4-1.7,6.3-4.4,6.3
	C119,130.3,117.3,128.1,117.3,124z M124.5,124c0-3.4-1.1-4.7-2.7-4.7s-2.7,1.3-2.7,4.7s1.1,4.8,2.7,4.8S124.5,127.4,124.5,124z
	 M120.5,123.9c0-0.8,0.6-1.3,1.2-1.3s1.2,0.5,1.2,1.3c0,0.8-0.6,1.3-1.2,1.3S120.5,124.7,120.5,123.9z M129.2,128.5h3.4v-8.4H130
	v-1.2c1.5-0.2,2.4-0.5,3.2-0.9h1.4v10.6h3v1.6h-8.4V128.5z M140.1,124c0-4.1,1.7-6.2,4.4-6.2c2.7,0,4.4,2.2,4.4,6.2
	c0,4-1.7,6.3-4.4,6.3C141.8,130.3,140.1,128.1,140.1,124z M147.3,124c0-3.4-1.1-4.7-2.7-4.7s-2.7,1.3-2.7,4.7s1.1,4.8,2.7,4.8
	S147.3,127.4,147.3,124z M143.3,123.9c0-0.8,0.6-1.3,1.2-1.3s1.2,0.5,1.2,1.3c0,0.8-0.6,1.3-1.2,1.3S143.3,124.7,143.3,123.9z
	 M152,128.5h3.4v-8.4h-2.7v-1.2c1.5-0.2,2.4-0.5,3.2-0.9h1.4v10.6h3v1.6H152V128.5z M162.9,124c0-4.1,1.7-6.2,4.4-6.2
	c2.7,0,4.4,2.2,4.4,6.2c0,4-1.7,6.3-4.4,6.3C164.6,130.3,162.9,128.1,162.9,124z M170.1,124c0-3.4-1.1-4.7-2.7-4.7s-2.7,1.3-2.7,4.7
	s1.1,4.8,2.7,4.8S170.1,127.4,170.1,124z M166.1,123.9c0-0.8,0.6-1.3,1.2-1.3s1.2,0.5,1.2,1.3c0,0.8-0.6,1.3-1.2,1.3
	S166.1,124.7,166.1,123.9z M174.8,128.5h3.4v-8.4h-2.7v-1.2c1.5-0.2,2.4-0.5,3.2-0.9h1.4v10.6h3v1.6h-8.4V128.5z M186.2,128.5h3.4
	v-8.4H187v-1.2c1.5-0.2,2.4-0.5,3.2-0.9h1.4v10.6h3v1.6h-8.4V128.5z M197.1,124c0-4.1,1.7-6.2,4.4-6.2c2.7,0,4.4,2.2,4.4,6.2
	c0,4-1.7,6.3-4.4,6.3C198.8,130.3,197.1,128.1,197.1,124z M204.3,124c0-3.4-1.1-4.7-2.7-4.7s-2.7,1.3-2.7,4.7s1.1,4.8,2.7,4.8
	S204.3,127.4,204.3,124z M200.3,123.9c0-0.8,0.6-1.3,1.2-1.3s1.2,0.5,1.2,1.3c0,0.8-0.6,1.3-1.2,1.3S200.3,124.7,200.3,123.9z
	 M209,128.5h3.4v-8.4h-2.7v-1.2c1.5-0.2,2.4-0.5,3.2-0.9h1.4v10.6h3v1.6H209V128.5z M219.9,124c0-4.1,1.7-6.2,4.4-6.2
	c2.7,0,4.4,2.2,4.4,6.2c0,4-1.7,6.3-4.4,6.3C221.6,130.3,219.9,128.1,219.9,124z M227.1,124c0-3.4-1.1-4.7-2.7-4.7s-2.7,1.3-2.7,4.7
	s1.1,4.8,2.7,4.8S227.1,127.4,227.1,124z M223.1,123.9c0-0.8,0.6-1.3,1.2-1.3s1.2,0.5,1.2,1.3c0,0.8-0.6,1.3-1.2,1.3
	S223.1,124.7,223.1,123.9z M231.8,128.5h3.4v-8.4h-2.7v-1.2c1.5-0.2,2.4-0.5,3.2-0.9h1.4v10.6h3v1.6h-8.4V128.5z M242.7,124
	c0-4.1,1.7-6.2,4.4-6.2c2.7,0,4.4,2.2,4.4,6.2c0,4-1.7,6.3-4.4,6.3C244.4,130.3,242.7,128.1,242.7,124z M249.9,124
	c0-3.4-1.1-4.7-2.7-4.7s-2.7,1.3-2.7,4.7s1.1,4.8,2.7,4.8S249.9,127.4,249.9,124z M245.9,123.9c0-0.8,0.6-1.3,1.2-1.3
	s1.2,0.5,1.2,1.3c0,0.8-0.6,1.3-1.2,1.3S245.9,124.7,245.9,123.9z M254.6,128.5h3.4v-8.4h-2.7v-1.2c1.5-0.2,2.4-0.5,3.2-0.9h1.4
	v10.6h3v1.6h-8.4V128.5z M265.5,124c0-4.1,1.7-6.2,4.4-6.2c2.7,0,4.4,2.2,4.4,6.2c0,4-1.7,6.3-4.4,6.3
	C267.2,130.3,265.5,128.1,265.5,124z M272.7,124c0-3.4-1.1-4.7-2.7-4.7s-2.7,1.3-2.7,4.7s1.1,4.8,2.7,4.8S272.7,127.4,272.7,124z
	 M268.7,123.9c0-0.8,0.6-1.3,1.2-1.3s1.2,0.5,1.2,1.3c0,0.8-0.6,1.3-1.2,1.3S268.7,124.7,268.7,123.9z M277.4,128.5h3.4v-8.4h-2.7
	v-1.2c1.5-0.2,2.4-0.5,3.2-0.9h1.4v10.6h3v1.6h-8.4V128.5z M288.3,124c0-4.1,1.7-6.2,4.4-6.2c2.7,0,4.4,2.2,4.4,6.2
	c0,4-1.7,6.3-4.4,6.3C290,130.3,288.3,128.1,288.3,124z M295.5,124c0-3.4-1.1-4.7-2.7-4.7s-2.7,1.3-2.7,4.7s1.1,4.8,2.7,4.8
	S295.5,127.4,295.5,124z M291.5,123.9c0-0.8,0.6-1.3,1.2-1.3s1.2,0.5,1.2,1.3c0,0.8-0.6,1.3-1.2,1.3S291.5,124.7,291.5,123.9z
	 M300.2,128.5h3.4v-8.4H301v-1.2c1.5-0.2,2.4-0.5,3.2-0.9h1.4v10.6h3v1.6h-8.4V128.5z M311.1,124c0-4.1,1.7-6.2,4.4-6.2
	c2.7,0,4.4,2.2,4.4,6.2c0,4-1.7,6.3-4.4,6.3C312.8,130.3,311.1,128.1,311.1,124z M318.3,124c0-3.4-1.1-4.7-2.7-4.7s-2.7,1.3-2.7,4.7
	s1.1,4.8,2.7,4.8S318.3,127.4,318.3,124z M314.3,123.9c0-0.8,0.6-1.3,1.2-1.3s1.2,0.5,1.2,1.3c0,0.8-0.6,1.3-1.2,1.3
	S314.3,124.7,314.3,123.9z M323,128.5h3.4v-8.4h-2.7v-1.2c1.5-0.2,2.4-0.5,3.2-0.9h1.4v10.6h3v1.6H323V128.5z M333.9,124
	c0-4.1,1.7-6.2,4.4-6.2c2.7,0,4.4,2.2,4.4,6.2c0,4-1.7,6.3-4.4,6.3C335.6,130.3,333.9,128.1,333.9,124z M341.1,124
	c0-3.4-1.1-4.7-2.7-4.7s-2.7,1.3-2.7,4.7s1.1,4.8,2.7,4.8S341.1,127.4,341.1,124z M337.1,123.9c0-0.8,0.6-1.3,1.2-1.3
	s1.2,0.5,1.2,1.3c0,0.8-0.6,1.3-1.2,1.3S337.1,124.7,337.1,123.9z M345.3,124c0-4.1,1.7-6.2,4.4-6.2c2.7,0,4.4,2.2,4.4,6.2
	c0,4-1.7,6.3-4.4,6.3C347,130.3,345.3,128.1,345.3,124z M352.5,124c0-3.4-1.1-4.7-2.7-4.7s-2.7,1.3-2.7,4.7s1.1,4.8,2.7,4.8
	S352.5,127.4,352.5,124z M348.5,123.9c0-0.8,0.6-1.3,1.2-1.3s1.2,0.5,1.2,1.3c0,0.8-0.6,1.3-1.2,1.3S348.5,124.7,348.5,123.9z
	 M356.7,124c0-4.1,1.7-6.2,4.4-6.2c2.7,0,4.4,2.2,4.4,6.2c0,4-1.7,6.3-4.4,6.3C358.4,130.3,356.7,128.1,356.7,124z M363.9,124
	c0-3.4-1.1-4.7-2.7-4.7s-2.7,1.3-2.7,4.7s1.1,4.8,2.7,4.8S363.9,127.4,363.9,124z M359.9,123.9c0-0.8,0.6-1.3,1.2-1.3
	s1.2,0.5,1.2,1.3c0,0.8-0.6,1.3-1.2,1.3S359.9,124.7,359.9,123.9z M368.1,124c0-4.1,1.7-6.2,4.4-6.2c2.7,0,4.4,2.2,4.4,6.2
	c0,4-1.7,6.3-4.4,6.3C369.8,130.3,368.1,128.1,368.1,124z M375.3,124c0-3.4-1.1-4.7-2.7-4.7s-2.7,1.3-2.7,4.7s1.1,4.8,2.7,4.8
	S375.3,127.4,375.3,124z M371.3,123.9c0-0.8,0.6-1.3,1.2-1.3s1.2,0.5,1.2,1.3c0,0.8-0.6,1.3-1.2,1.3S371.3,124.7,371.3,123.9z
	 M380,128.5h3.4v-8.4h-2.7v-1.2c1.5-0.2,2.4-0.5,3.2-0.9h1.4v10.6h3v1.6H380V128.5z M391.4,128.5h3.4v-8.4h-2.7v-1.2
	c1.5-0.2,2.4-0.5,3.2-0.9h1.4v10.6h3v1.6h-8.4V128.5z M402.3,124c0-4.1,1.7-6.2,4.4-6.2s4.4,2.2,4.4,6.2c0,4-1.7,6.3-4.4,6.3
	S402.3,128.1,402.3,124z M409.5,124c0-3.4-1.1-4.7-2.7-4.7s-2.7,1.3-2.7,4.7s1.1,4.8,2.7,4.8S409.5,127.4,409.5,124z M405.5,123.9
	c0-0.8,0.6-1.3,1.2-1.3s1.2,0.5,1.2,1.3c0,0.8-0.6,1.3-1.2,1.3S405.5,124.7,405.5,123.9z M413.7,124c0-4.1,1.7-6.2,4.4-6.2
	s4.4,2.2,4.4,6.2c0,4-1.7,6.3-4.4,6.3S413.7,128.1,413.7,124z M420.9,124c0-3.4-1.1-4.7-2.7-4.7s-2.7,1.3-2.7,4.7s1.1,4.8,2.7,4.8
	S420.9,127.4,420.9,124z M416.9,123.9c0-0.8,0.6-1.3,1.2-1.3s1.2,0.5,1.2,1.3c0,0.8-0.6,1.3-1.2,1.3S416.9,124.7,416.9,123.9z
	 M425.6,128.5h3.4v-8.4h-2.7v-1.2c1.5-0.2,2.4-0.5,3.2-0.9h1.4v10.6h3v1.6h-8.4V128.5z M436.5,124c0-4.1,1.7-6.2,4.4-6.2
	s4.4,2.2,4.4,6.2c0,4-1.7,6.3-4.4,6.3S436.5,128.1,436.5,124z M443.7,124c0-3.4-1.1-4.7-2.7-4.7s-2.7,1.3-2.7,4.7s1.1,4.8,2.7,4.8
	S443.7,127.4,443.7,124z M439.7,123.9c0-0.8,0.6-1.3,1.2-1.3s1.2,0.5,1.2,1.3c0,0.8-0.6,1.3-1.2,1.3S439.7,124.7,439.7,123.9z
	 M448.4,128.5h3.4v-8.4h-2.7v-1.2c1.5-0.2,2.4-0.5,3.2-0.9h1.4v10.6h3v1.6h-8.4V128.5z M459.3,124c0-4.1,1.7-6.2,4.4-6.2
	s4.4,2.2,4.4,6.2c0,4-1.7,6.3-4.4,6.3S459.3,128.1,459.3,124z M466.5,124c0-3.4-1.1-4.7-2.7-4.7s-2.7,1.3-2.7,4.7s1.1,4.8,2.7,4.8
	S466.5,127.4,466.5,124z M462.5,123.9c0-0.8,0.6-1.3,1.2-1.3s1.2,0.5,1.2,1.3c0,0.8-0.6,1.3-1.2,1.3S462.5,124.7,462.5,123.9z
	 M471.2,128.5h3.4v-8.4h-2.7v-1.2c1.5-0.2,2.4-0.5,3.2-0.9h1.4v10.6h3v1.6h-8.4V128.5z M482.6,128.5h3.4v-8.4h-2.7v-1.2
	c1.5-0.2,2.4-0.5,3.2-0.9h1.4v10.6h3v1.6h-8.4V128.5z M493.5,124c0-4.1,1.7-6.2,4.4-6.2s4.4,2.2,4.4,6.2c0,4-1.7,6.3-4.4,6.3
	S493.5,128.1,493.5,124z M500.7,124c0-3.4-1.1-4.7-2.7-4.7s-2.7,1.3-2.7,4.7s1.1,4.8,2.7,4.8S500.7,127.4,500.7,124z M496.7,123.9
	c0-0.8,0.6-1.3,1.2-1.3s1.2,0.5,1.2,1.3c0,0.8-0.6,1.3-1.2,1.3S496.7,124.7,496.7,123.9z M505.4,128.5h3.4v-8.4h-2.7v-1.2
	c1.5-0.2,2.4-0.5,3.2-0.9h1.4v10.6h3v1.6h-8.4V128.5z M516.8,128.5h3.4v-8.4h-2.7v-1.2c1.5-0.2,2.4-0.5,3.2-0.9h1.4v10.6h3v1.6h-8.4
	V128.5z M528.2,128.5h3.4v-8.4h-2.7v-1.2c1.5-0.2,2.4-0.5,3.2-0.9h1.4v10.6h3v1.6h-8.4V128.5z M539.6,128.5h3.4v-8.4h-2.7v-1.2
	c1.5-0.2,2.4-0.5,3.2-0.9h1.4v10.6h3v1.6h-8.4V128.5z M550.5,124c0-4.1,1.7-6.2,4.4-6.2s4.4,2.2,4.4,6.2c0,4-1.7,6.3-4.4,6.3
	S550.5,128.1,550.5,124z M557.7,124c0-3.4-1.1-4.7-2.7-4.7s-2.7,1.3-2.7,4.7s1.1,4.8,2.7,4.8S557.7,127.4,557.7,124z M553.7,123.9
	c0-0.8,0.6-1.3,1.2-1.3s1.2,0.5,1.2,1.3c0,0.8-0.6,1.3-1.2,1.3S553.7,124.7,553.7,123.9z M562.4,128.5h3.4v-8.4h-2.7v-1.2
	c1.5-0.2,2.4-0.5,3.2-0.9h1.4v10.6h3v1.6h-8.4V128.5z M573.3,124c0-4.1,1.7-6.2,4.4-6.2s4.4,2.2,4.4,6.2c0,4-1.7,6.3-4.4,6.3
	S573.3,128.1,573.3,124z M580.5,124c0-3.4-1.1-4.7-2.7-4.7s-2.7,1.3-2.7,4.7s1.1,4.8,2.7,4.8S580.5,127.4,580.5,124z M576.5,123.9
	c0-0.8,0.6-1.3,1.2-1.3s1.2,0.5,1.2,1.3c0,0.8-0.6,1.3-1.2,1.3S576.5,124.7,576.5,123.9z M585.2,128.5h3.4v-8.4h-2.7v-1.2
	c1.5-0.2,2.4-0.5,3.2-0.9h1.4v10.6h3v1.6h-8.4V128.5z M596.1,124c0-4.1,1.7-6.2,4.4-6.2s4.4,2.2,4.4,6.2c0,4-1.7,6.3-4.4,6.3
	S596.1,128.1,596.1,124z M603.3,124c0-3.4-1.1-4.7-2.7-4.7s-2.7,1.3-2.7,4.7s1.1,4.8,2.7,4.8S603.3,127.4,603.3,124z M599.3,123.9
	c0-0.8,0.6-1.3,1.2-1.3s1.2,0.5,1.2,1.3c0,0.8-0.6,1.3-1.2,1.3S599.3,124.7,599.3,123.9z M608,128.5h3.4v-8.4h-2.7v-1.2
	c1.5-0.2,2.4-0.5,3.2-0.9h1.4v10.6h3v1.6H608V128.5z M618.9,124c0-4.1,1.7-6.2,4.4-6.2s4.4,2.2,4.4,6.2c0,4-1.7,6.3-4.4,6.3
	S618.9,128.1,618.9,124z M626.1,124c0-3.4-1.1-4.7-2.7-4.7s-2.7,1.3-2.7,4.7s1.1,4.8,2.7,4.8S626.1,127.4,626.1,124z M622.1,123.9
	c0-0.8,0.6-1.3,1.2-1.3s1.2,0.5,1.2,1.3c0,0.8-0.6,1.3-1.2,1.3S622.1,124.7,622.1,123.9z M630.8,128.5h3.4v-8.4h-2.7v-1.2
	c1.5-0.2,2.4-0.5,3.2-0.9h1.4v10.6h3v1.6h-8.4V128.5z M642.2,128.5h3.4v-8.4h-2.7v-1.2c1.5-0.2,2.4-0.5,3.2-0.9h1.4v10.6h3v1.6h-8.4
	V128.5z M653.1,124c0-4.1,1.7-6.2,4.4-6.2s4.4,2.2,4.4,6.2c0,4-1.7,6.3-4.4,6.3S653.1,128.1,653.1,124z M660.3,124
	c0-3.4-1.1-4.7-2.7-4.7s-2.7,1.3-2.7,4.7s1.1,4.8,2.7,4.8S660.3,127.4,660.3,124z M656.3,123.9c0-0.8,0.6-1.3,1.2-1.3
	s1.2,0.5,1.2,1.3c0,0.8-0.6,1.3-1.2,1.3S656.3,124.7,656.3,123.9z M665,128.5h3.4v-8.4h-2.7v-1.2c1.5-0.2,2.4-0.5,3.2-0.9h1.4v10.6
	h3v1.6H665V128.5z M675.9,124c0-4.1,1.7-6.2,4.4-6.2s4.4,2.2,4.4,6.2c0,4-1.7,6.3-4.4,6.3S675.9,128.1,675.9,124z M683.1,124
	c0-3.4-1.1-4.7-2.7-4.7s-2.7,1.3-2.7,4.7s1.1,4.8,2.7,4.8S683.1,127.4,683.1,124z M679.1,123.9c0-0.8,0.6-1.3,1.2-1.3
	s1.2,0.5,1.2,1.3c0,0.8-0.6,1.3-1.2,1.3S679.1,124.7,679.1,123.9z M687.8,128.5h3.4v-8.4h-2.7v-1.2c1.5-0.2,2.4-0.5,3.2-0.9h1.4
	v10.6h3v1.6h-8.4V128.5z M698.7,124c0-4.1,1.7-6.2,4.4-6.2s4.4,2.2,4.4,6.2c0,4-1.7,6.3-4.4,6.3S698.7,128.1,698.7,124z M705.8,124
	c0-3.4-1.1-4.7-2.7-4.7s-2.7,1.3-2.7,4.7s1.1,4.8,2.7,4.8S705.8,127.4,705.8,124z M701.9,123.9c0-0.8,0.6-1.3,1.2-1.3
	s1.2,0.5,1.2,1.3c0,0.8-0.6,1.3-1.2,1.3S701.9,124.7,701.9,123.9z M710.6,128.5h3.4v-8.4h-2.7v-1.2c1.5-0.2,2.4-0.5,3.2-0.9h1.4
	v10.6h3v1.6h-8.4V128.5z M721.5,124c0-4.1,1.7-6.2,4.4-6.2s4.4,2.2,4.4,6.2c0,4-1.7,6.3-4.4,6.3S721.5,128.1,721.5,124z M728.6,124
	c0-3.4-1.1-4.7-2.7-4.7s-2.7,1.3-2.7,4.7s1.1,4.8,2.7,4.8S728.6,127.4,728.6,124z M724.7,123.9c0-0.8,0.6-1.3,1.2-1.3
	s1.2,0.5,1.2,1.3c0,0.8-0.6,1.3-1.2,1.3S724.7,124.7,724.7,123.9z M733.4,128.5h3.4v-8.4h-2.7v-1.2c1.5-0.2,2.4-0.5,3.2-0.9h1.4
	v10.6h3v1.6h-8.4V128.5z"/>
</svg>
